<?xml version="1.0" encoding="utf-8"?>
<!-- Generator: Adobe Illustrator 22.1.0, SVG Export Plug-In . SVG Version: 6.00 Build 0)  -->
<svg version="1.1" id="Layer_1" opacity="0.1" xmlns="http://www.w3.org/2000/svg" xmlns:xlink="http://www.w3.org/1999/xlink"
	 x="0px" y="0px" viewBox="0 0 2000 2000" style="enable-background:new 0 0 2000 2000;" xml:space="preserve">
<style type="text/css">
	.st0{fill:none;}
	.st1{fill:#3A9FCC;}
	.st2{fill:url(#SVGID_1_);}
</style>
<pattern  y="2000" width="1110" height="840" patternUnits="userSpaceOnUse" id="a" viewBox="50 -957.5 1110 840" style="overflow:visible;">
	<g>
		<rect x="50" y="-957.5" class="st0" width="1110" height="840"/>
		<rect x="50" y="-957.5" class="st0" width="1110" height="840"/>
		<path class="st1" d="M235.5-1059.8c5.6,36.3,8.2,73,7.9,109.8l-2.5-1.1c24.5-26.9,48.9-54,73-81.2c0.5,0.8,1,1.7,1.5,2.5
			c-36.1,9.2-73.9,10.2-110.5,3l1.5-2.5c28.1,28.1,63.4,46.7,98.3,64.9l-2.1,2.1l-34.8-55.8c-10.2-16.4-20.4-34-37.4-44.4
			c-1.6-1-0.1-3.6,1.5-2.6c15.7,9.6,25.7,25.1,35.3,40.4c12.7,20.3,25.3,40.6,38,60.9c0.8,1.3-0.8,2.7-2,2.1
			c-35.1-18.3-70.6-37.2-98.9-65.4c-0.6-0.6-0.6-1.6,0-2.1c0.4-0.4,0.9-0.5,1.4-0.4c36.1,7.1,73.3,6.1,108.9-3
			c0.8-0.2,1.6,0.3,1.8,1.1c0.1,0.5,0,1-0.4,1.4c-24.1,27.3-48.5,54.3-73,81.2c-0.6,0.6-1.6,0.6-2.1,0c-0.3-0.3-0.4-0.6-0.4-1
			c0.3-36.5-2.3-72.9-7.9-109C232.4-1060.9,235.3-1061.7,235.5-1059.8L235.5-1059.8z"/>
		<path class="st1" d="M1201.8-631.5c-4.5,12.2-13.8,21.9-27,24.1c-11.4,1.9-23.3-4-27.7-14.9c-4.2-10.5-2.1-22.3,7-29.5
			c8.7-6.6,20.6-7.2,29.8-1.5l-2,2.1c-7.2-9.7-14.8-21.4-9.6-33.8c4-9.5,15.3-11.6,24.4-10c27.7,4.7,22,44.4,10.8,61.4
			c-1.1,1.6-3.7,0.1-2.6-1.5c5.5-8.3,8.6-18.1,8.8-28.1c0.3-11-2.5-23.4-13.6-27.8c-9.1-3.6-21.3-1.7-25.5,8.1
			c-4.5,10.8,3.8,22,9.8,30.2c0.9,1.2-0.8,2.8-2.1,2.1c-7.9-5-17.6-4.5-25.5,0.5c-8.8,5.5-10.6,16.7-7.4,25.9
			c3.8,11,15.3,15.5,26.1,13.7c11.3-1.9,19.5-11.5,23.3-21.8C1199.7-634.1,1202.6-633.3,1201.8-631.5L1201.8-631.5z"/>
		<path class="st1" d="M1195.5-617.7c-10.8,16.2-25.7,29.3-43.1,38.1c-1.7,0.9-3.2-1.7-1.5-2.6c17-8.5,31.4-21.3,42-37
			C1194-620.8,1196.6-619.3,1195.5-617.7L1195.5-617.7z"/>
		<path class="st1" d="M628.5-703.9c-3.2,22.9-9.3,47.1-29.4,61c-20.3,14.1-46.9,5.7-66-6.2c-17.8-11.1-32.9-29.4-29.8-51.7
			c3.1-22.4,22.4-39.1,45-38.9l-0.8,2.8c-12.3-6.5-20.5-20.8-18.1-34.8c2.7-15.3,15.1-26.4,30.4-28.1c15.5-1.8,33.5,6.4,45.4,15.8
			c11.7,9.2,20.1,22.1,23.8,36.5c0.2,0.8-0.4,1.6-1.2,1.8c-0.7,0.1-1.4-0.3-1.7-1c-6.7-25.8-28-43.6-53.6-49.3
			c-16.4-3.7-32.6,3.6-38.7,19.6c-5.4,14.1,2.4,30.2,15.3,37c0.7,0.4,0.9,1.4,0.5,2.1c-0.3,0.4-0.7,0.7-1.2,0.7
			c-22.3-0.2-40.9,17.1-42.3,39.4c-1.5,21.8,15.3,37.9,32.7,48c19.1,11.2,43.6,16.1,62.2,1.4c17-13.5,21.9-36.4,24.7-56.8
			C625.9-706.6,628.8-705.8,628.5-703.9L628.5-703.9z"/>
		<path class="st1" d="M625.1-703.7c-2.1-8.5-2.7-17.2-1.9-25.9c0.5-5.7,1.2-14.4,6.6-17.9c10.6-7,26.8,2.3,33.8,10.7
			c8.7,10.5,3.6,23.9-6.4,31.2c-6.3,4.6-27,14-31.5,2.8c-0.7-1.8,2.2-2.6,2.9-0.8c2.1,5.2,10.7,2.2,14.3,1.1
			c5.4-1.4,10.5-3.9,14.8-7.4c9.9-8.2,8.9-20.8-0.3-28.9c-6.6-5.9-22.3-13.3-28.5-3.4c-3,4.9-3,12.5-3.2,18
			c-0.2,6.6,0.5,13.2,2.2,19.6C628.4-702.6,625.5-701.8,625.1-703.7L625.1-703.7z"/>
		<path class="st1" d="M625.3-721.3c-14.6,14.8-35.1,26.3-55.9,28.8c-1.9,0.2-1.9-2.8,0-3c20-2.4,39.8-13.7,53.8-27.9
			C624.6-724.8,626.7-722.7,625.3-721.3L625.3-721.3z"/>
		<path class="st1" d="M623.9-722.4c-16.1-2.8-33.8-11.2-41.4-26.4c-0.9-1.7,1.7-3.2,2.6-1.5c7.3,14.5,24.3,22.4,39.6,25
			C626.6-725,625.8-722.1,623.9-722.4L623.9-722.4z"/>
		<path class="st1" d="M640.2-699.8c3.6,28.5,24.1,53.1,50.7,63.4c18.7,7.2,31.8-10.1,36.5-26.2c4.6-15.9-1.2-34-16-42.1
			c-0.7-0.4-0.9-1.4-0.5-2.1c0.3-0.4,0.7-0.7,1.3-0.7c13.9,0.3,29.9-0.2,37.1-14.2c6.4-12.5,1-28-9.7-36
			c-11.5-8.7-27.4-8.8-40.5-4.2c-7.2,2.5-13.7,6.8-19.6,11.6c-4.1,3.3-15.5,11.7-13.5,17.5c0.6,1.8-2.3,2.6-2.9,0.8
			c-2.4-6.8,5.1-11.9,9.5-16.2c6.5-6.4,14.1-11.5,22.4-15.3c14.8-6.6,32.6-6.1,46.1,3.2c12,8.3,16.6,23.9,11.9,37.5
			c-6,17.2-25.3,18.6-40.8,18.3l0.8-2.8c14.7,8.1,20.7,24.7,18.4,40.7c-2.3,15.7-14.5,35.3-32.1,35.1c-8.1-0.1-16.4-4.8-23.1-8.9
			c-7.1-4.4-13.5-9.7-19-15.9c-10.9-12.1-17.9-27.3-19.9-43.5C636.9-701.7,639.9-701.6,640.2-699.8L640.2-699.8z"/>
		<path class="st1" d="M655.8-706.7c8.4,7.6,19.3,11.6,30.6,11.3c1.9,0,1.9,3,0,3c-12.1,0.3-23.8-4.1-32.7-12.2
			C652.2-705.9,654.4-708,655.8-706.7z"/>
		<path class="st1" d="M668.4-729.1c11.2,4.9,23.9,5,35.2,0.2c1.8-0.7,3.3,1.8,1.5,2.6c-12.2,5.3-26.1,5.2-38.2-0.2
			C665.1-727.3,666.6-729.9,668.4-729.1z"/>
		<path class="st1" d="M595.4-789c-0.3-10.9,3.1-21.7,9.8-30.4c0.6-0.8,2.1-1.2,2.6,0c2.4,5.3,4.6,10.7,6.7,16.2l-2.7-0.4
			c3.3-5.4,8.4-9.3,14.5-11.2c6.8-2.1,5.3,9.1,5.6,12.7c1.4,18.9,6.5,37.3,15,54.2c0.9,1.7-1.7,3.2-2.6,1.5
			c-6.2-12.2-10.6-25.2-13.2-38.6c-1.2-6.8-2.1-13.7-2.5-20.7c-0.1-1.8-0.2-3.5-0.3-5.3c-0.1-2.3-4.8,0.3-5,0.5
			c-3.7,1.8-6.9,4.7-9,8.3c-0.4,0.7-1.4,0.9-2.1,0.5c-0.3-0.2-0.5-0.5-0.6-0.8c-2-5.2-4.1-10.4-6.3-15.5h2.6
			c-6.4,8.2-9.7,18.4-9.4,28.9C598.3-787.1,595.3-787.1,595.4-789L595.4-789z"/>
		<path class="st1" d="M650.2-746.1c13-20.3,13.5-45,13.8-68.3c0-0.8,0.7-1.5,1.6-1.5c0.4,0,0.7,0.2,1,0.4
			c7.5,6.5,5.4,20.9,14.8,25.1l-1.8,0.2c3.8-4.2,10.3-15.6,16-8c2.9,3.9,3.5,10.8,4.3,15.4c0.9,5.7,1.3,11.6,1.1,17.4
			c-0.1,1.9-3.1,1.9-3,0c0.2-7.5-0.5-14.9-2.1-22.2c-0.3-1.6-2.4-13-6.2-9.2c-2.8,2.8-5.3,5.8-8,8.7c-0.5,0.5-1.2,0.6-1.8,0.2
			c-10.3-4.6-7.7-18.8-15.4-25.6l2.6-1c-0.3,23.9-1,49.1-14.2,69.9C651.8-742.9,649.1-744.4,650.2-746.1L650.2-746.1z"/>
		<path class="st1" d="M1098.9-453.3c-1.6,13.7-8.9,28.6-22,34.5c-14.1,6.4-21.5-8.1-21.8-20c-0.4-15.7,9.2-31.5,17.9-43.8
			c9.4-12.9,21.1-24,34.5-32.6c0.7-0.4,1.6-0.2,2.1,0.5c9.6,13.2,19.6,26.1,28.6,39.7c7.4,11.2,13.5,24.9,8.2,38.2
			c-4.5,10.7-15.6,17.2-27.1,15.9c-13.4-1.8-21.4-12.2-25.4-24.4c-0.6-1.8,2.3-2.6,2.9-0.8c4,12.2,12.4,22.3,26.2,22.4
			c13.2,0.1,22.4-11.8,22.6-24.2c0.1-12-8.1-23.3-14.8-32.6c-7.9-10.9-15.8-21.8-23.7-32.6l2,0.5c-21,13.6-38.6,33.7-47.7,57.2
			c-3.9,10.2-7.1,38,11.5,34.8c13.7-2.4,21.6-20.5,23.1-32.7C1096.1-455.2,1099.1-455.2,1098.9-453.3L1098.9-453.3z"/>
		<path class="st1" d="M1112.3-464c17.3,7.7,35.2,14.1,53.4,19.3c0.8,0.2,1.2,1.1,1,1.9c-0.2,0.8-1,1.2-1.8,1
			c-18.5-5.3-36.6-11.8-54.2-19.6C1109-462.2,1110.5-464.8,1112.3-464L1112.3-464z"/>
		<path class="st1" d="M1160.9-439.8c0.8-3,1.6-6.1,2.3-9.1c0.2-0.8,1.1-1.3,1.9-1c0.2,0.1,0.4,0.2,0.6,0.4c2.5,2.5,5.3,4.6,8.4,6.2
			c0.7,0.4,0.9,1.4,0.5,2.1c-0.2,0.3-0.5,0.5-0.8,0.6l-8,2.7c-1.8,0.6-2.6-2.3-0.8-2.9l8-2.7l-0.4,2.7c-3.3-1.8-6.4-4-9.1-6.7
			l2.5-0.7c-0.8,3-1.6,6.1-2.3,9.1C1163.3-437.1,1160.4-437.9,1160.9-439.8L1160.9-439.8z"/>
		<path class="st1" d="M1066.9-473.7c-7.1-3.5-14.2-7.1-21.3-10.6c-4.4-2.1-8.5-0.4-12.8,0.9l-12.6,3.7c-1.9,0.5-2.7-2.4-0.8-2.9
			l14.3-4.2c3.5-1,6.5-1.9,10.1-1.2c3.9,0.7,7.8,3.5,11.2,5.2l13.3,6.6C1070.1-475.5,1068.6-472.9,1066.9-473.7L1066.9-473.7z"/>
		<path class="st1" d="M1040.1-488.6l-7.1-13.9c-0.9-1.7,1.7-3.2,2.6-1.5l7.1,14C1043.6-488.4,1041-486.9,1040.1-488.6L1040.1-488.6
			z"/>
		<path class="st1" d="M1037.9-488.5c-6.5-2.9-13.4-4.9-20.4-5.7c-1.9-0.2-1.9-3.2,0-3c7.6,0.9,15,2.9,21.9,6.1
			C1041.1-490.3,1039.6-487.7,1037.9-488.5L1037.9-488.5z"/>
		<path class="st1" d="M354.3-666.1c-2.6-2.7-0.4-5.8,2.1-7.7c4.4-3.3,11.2-3.7,16.3-3.2c11,1.1,20.8,9.4,21.9,20.6
			c1.2,11.7-13,16.9-22.5,15.1c-12.3-2.3-20.7-13.6-19.3-26c0.2-1.9,3.2-1.9,3,0c-1,8.5,3.1,16.8,10.5,21c7.7,4.5,21.7,3.2,24.9-6.3
			c2.7-8.2-5-16-11.6-19.3c-3.5-1.6-7.2-2.3-11-2.2c-1.1,0-15.3,2.8-12.3,6C357.8-666.8,355.7-664.7,354.3-666.1L354.3-666.1z"/>
		<path class="st1" d="M362.3-647.4c1.4,12-1.6,24-8.4,34c-4.5,6.8-16.7,19.5-25.4,11.1c-7.4-7.2-5.1-19.1-2.7-28
			c3.6-12.7,10.6-24.2,20.2-33.2l1.8,2.4c-8.8,5.7-20.2,5.8-29,0.2c-8.4-5.4-12.8-15.2-11.4-25c1.7-10.6,14.7-11.9,22.9-9.6
			c12.1,3.5,23.5,12.2,32.9,20.2l-2.1,2.1c-6.4-7.3-9.6-16.9-8.9-26.6c0.6-9.1,5.3-19.1,14.7-21.6c9.6-2.5,13.9,6.2,15.8,13.8
			c3,11.9,1.5,24.7-1.3,36.5c-0.4,1.9-3.3,1.1-2.9-0.8c2-8.1,2.9-16.4,2.7-24.8c-0.3-8.3-2-23.6-13.5-22
			c-8.9,1.3-12.1,12.7-12.5,20.2c-0.4,8.4,2.5,16.6,8.1,22.9c0.6,0.6,0.6,1.5,0,2.1s-1.5,0.6-2.1,0c-6.5-5.5-13.5-10.4-21-14.6
			c-8.2-4.6-19.4-9.7-27.5-2.1s0.9,21.5,7.6,26.3c7.7,5.5,18.3,4.7,26-0.2c0.7-0.4,1.6-0.1,2,0.6c0.3,0.6,0.2,1.3-0.2,1.8
			c-7.6,7.3-13.5,16.2-17.4,26c-3.3,8.4-6.3,19.2-2.5,27.9c6.3,14.3,21.6-4.4,25.5-11.1c4.9-8.7,6.8-18.8,5.5-28.7
			C359.1-649.3,362.1-649.3,362.3-647.4L362.3-647.4z"/>
		<path class="st1" d="M375-672.9c2-10.7,7.9-20.2,16.7-26.7c8.3-6,20.4-10.6,29.6-3.8c8.2,6.1,6.3,18,1.5,25.4
			c-6.6,10.3-19.3,16.7-30.9,19.2l-0.8-2.9c12.8-1.8,26.6,2.7,36.5,11.1c9.2,7.8,10.5,21.1,1.4,29.3c-8.5,7.6-23.6,10-34,5.5
			c-10.4-4.5-17.4-15.4-14.5-26.8c0.5-1.9,3.4-1.1,2.9,0.8c-2.4,9.6,3.2,18.5,11.6,22.8c9.2,4.7,21.3,2.3,29.7-2.9
			c11.9-7.2,8-21.1-1.5-28.4c-8.5-6.5-20.8-10-31.4-8.5c-1.9,0.2-2.7-2.5-0.8-2.9c9.5-2,18.2-6.6,25.2-13.2
			c7.5-7.1,12-21.1,1.1-27.5c-8.3-4.9-19.8,1.6-26.2,6.9c-7,6-11.6,14.3-13.3,23.3C377.5-670.2,374.6-671,375-672.9L375-672.9z"/>
		<path class="st1" d="M355.8-616.7c-6.3,10.1,3,20.5,13.6,20c11.5-0.6,17.1-12.8,16.4-22.9c-0.1-1.9,2.9-1.9,3,0
			c0.9,13.5-7.8,26.3-22.2,26c-12.1-0.3-19.8-14.3-13.4-24.5C354.2-619.8,356.8-618.3,355.8-616.7L355.8-616.7z"/>
		<path class="st1" d="M570.3-221.6c-13.1,7.4-29.2,4.7-40.9-4.1c-12.8-9.7-16.5-26-11.9-41c4.9-15.9,18.6-27.6,35.1-29.9
			c17.1-2.4,34.8,5.5,45.4,18.8l-2.3,0.3c16.2-21.7,43.1-32.7,69.9-28.5c26.2,4.2,48.3,25.1,55.9,50.2l-2.7-0.4
			c8.7-14,25.5-19.1,41.3-16.6c17.8,2.9,30.6,17.7,32.9,35.2c2.7,19.3-5.9,38.4-22,49.3c-16.6,11.2-39.2,12.1-57.5,4.8l1.9-1.4
			c1.5,22.3-20.6,37.6-40.9,38.1c-25.9,0.7-46.3-22.3-57.9-42.9h2.6c-13.1,17.1-36.5,26.7-55.7,13.3c-15.4-10.8-15.5-36.7,2.8-44.6
			c1.8-0.8,3.3,1.8,1.5,2.6c-7.9,3.4-12.1,10.9-12.7,19.3c-0.7,9.2,4.8,17,12.3,21.7c17.2,10.9,38.1,0.9,49.3-13.7
			c0.4-0.7,1.4-0.9,2.1-0.5c0.2,0.1,0.4,0.3,0.5,0.5c10.9,19.4,28,38.7,51.4,41.3c20,2.2,43.3-13.4,41.8-35c0-0.8,0.7-1.5,1.5-1.5
			c0.1,0,0.3,0,0.4,0.1c16.7,6.7,35.6,6.2,51.5-2.3s24.9-25.5,24.6-43.4c-0.3-17.3-10.9-32.3-27.7-37c-15-4.2-32.9,0.9-41.4,14.4
			c-0.4,0.7-1.4,0.9-2.1,0.5c-0.3-0.2-0.6-0.5-0.7-0.9c-7.4-23.8-26.8-41.8-51-47.5c-25.7-5.9-53.9,5.7-69.3,26.6
			c-0.4,0.7-1.4,0.9-2.1,0.5c-0.1-0.1-0.2-0.1-0.3-0.2c-9.7-12.1-24.6-18.9-40.1-18.2c-15.7,0.7-28.7,11.3-34.5,25.6
			c-5.5,13.5-2.7,28.7,8,38.7c10.4,9.7,27,12.6,39.5,5.5c0.7-0.4,1.6-0.1,2,0.6C571.2-222.9,571-222,570.3-221.6L570.3-221.6z"/>
		<path class="st1" d="M235.5-219.8c5.6,36.3,8.2,73,7.9,109.7l-2.5-1.1c24.5-26.9,48.9-53.9,73-81.2c0.5,0.8,1,1.7,1.5,2.5
			c-36.1,9.2-73.9,10.2-110.5,3l1.5-2.5c28.1,28.1,63.4,46.7,98.3,64.9l-2.1,2.1l-34.8-55.8c-10.3-16.4-20.5-34-37.4-44.4
			c-1.6-1-0.1-3.6,1.5-2.6c15.7,9.6,25.7,25.1,35.3,40.4c12.7,20.3,25.3,40.6,38,60.9c0.8,1.3-0.8,2.7-2,2.1
			c-35.1-18.3-70.6-37.2-98.9-65.4c-0.6-0.6-0.6-1.6,0-2.1c0.4-0.4,0.9-0.5,1.4-0.4c36.1,7.1,73.3,6.1,108.9-3
			c0.8-0.2,1.6,0.3,1.8,1.1c0.1,0.5,0,1-0.4,1.4c-24.1,27.3-48.5,54.3-73,81.2c-0.6,0.6-1.6,0.6-2.1,0c-0.3-0.3-0.4-0.6-0.4-1
			c0.3-36.5-2.3-72.9-7.9-109C232.4-220.9,235.3-221.7,235.5-219.8L235.5-219.8z"/>
		<path class="st1" d="M133.8-457.4c15.5,19.8,29.4,40.8,41.6,62.9l-2.7,0.4c5.6-24.3,11-48.5,16.3-72.9l2.5,1.5
			c-18.5,17.6-40.7,30.9-65,39v-2.9c26.2,7.2,53.3,6.6,80.2,5.7c-0.2,0.9-0.5,1.9-0.8,2.8L168-441.7c-12.1-6.6-24.3-14.1-38.5-14.7
			c-1.9-0.1-1.9-3.1,0-3c13.4,0.6,25,7,36.5,13.3l41.3,22.6c0.7,0.4,0.9,1.4,0.5,2.1c-0.3,0.4-0.7,0.7-1.2,0.7
			c-27.1,0.8-54.6,1.5-81-5.9c-0.8-0.2-1.2-1.1-1-1.9c0.1-0.5,0.5-0.9,1-1c23.8-7.8,45.6-20.9,63.7-38.2c0.6-0.6,1.6-0.6,2.1,0
			c0.4,0.4,0.5,0.9,0.4,1.4c-5.2,24.3-10.7,48.6-16.3,72.9c-0.2,0.8-1.1,1.3-1.9,1c-0.4-0.1-0.7-0.3-0.9-0.7
			c-12-21.8-25.8-42.6-41.1-62.2C130.5-456.7,132.6-458.9,133.8-457.4z"/>
		<path class="st1" d="M276.1-551.5c-6.3,16.2-13.9,31.8-22.6,46.8l-1.7-2.2c16.3-5.2,32.6-10.5,48.8-15.9v2.9
			c-17-4.8-32.7-13.3-46.1-24.9l2.5-1.5c4.9,18,14.8,33.8,24.7,49.4l-2.8,0.8l-1-29.8c-0.3-9.4-0.2-19.1-4.7-27.6
			c-0.9-1.7,1.7-3.2,2.6-1.5c4.1,7.8,4.7,16.5,5,25.2c0.4,11.2,0.8,22.5,1.2,33.7c0,0.8-0.7,1.5-1.6,1.5c-0.5,0-1-0.3-1.2-0.7
			c-10.1-15.8-20-31.9-25-50.1c-0.2-0.8,0.3-1.6,1.1-1.8c0.5-0.1,1,0,1.4,0.4c13,11.3,28.2,19.5,44.8,24.2c0.8,0.3,1.2,1.1,1,1.9
			c-0.1,0.5-0.5,0.8-1,1c-16.3,5.4-32.6,10.8-48.9,15.9c-0.8,0.2-1.6-0.3-1.8-1.1c-0.1-0.4,0-0.8,0.2-1.1
			c8.6-14.7,16.1-30.1,22.3-46C273.9-554,276.8-553.2,276.1-551.5L276.1-551.5z"/>
		<path class="st1" d="M757.6-481.5c-14.3,4.5-25.6,15.8-35.7,26.4s-19.3,22.1-29.3,33c-18.2,19.9-40.2,37.5-68,40.3
			c-25.4,2.5-48.6-12.8-58.8-35.7c-10.5-23.8-5.5-53,10.8-72.9c20.4-24.8,55.2-30.2,85.3-27.1c31.8,3.2,62.4,15.6,88,34.5
			c1.5,1.1,0,3.7-1.5,2.6c-23.6-17.4-51-28.8-80-33.3c-29.8-4.6-62.8-0.8-85.5,20.8c-21.8,20.8-25.9,56.8-10.3,82.2
			c7.4,11.9,19,20.6,32.5,24.4c14.7,4.1,30.6,0.8,44.2-5.4c22.5-10.3,39.1-30,54.9-48.3c14.5-16.6,30.6-37.5,52.4-44.3
			C758.7-484.9,759.5-482,757.6-481.5L757.6-481.5z"/>
		<path class="st1" d="M583-425.3c-2.4-3.3,1.6-7.9,5.2-6c1.5,0.9,2.3,2.6,2.1,4.2c-0.2,2-1.9,3.4-3.8,3.4c-1.8,0-3.5-1.2-4-3
			c-0.6-2.1,1-4,2.8-4.7c0.9-0.3,1.9-0.3,2.8,0.2c1,0.5,1.5,2,1.5,3.1c0.2,1.2-0.4,2.4-1.6,2.8c-1,0.4-2.2,0.1-3-0.7
			c-1.4-1.4,0.8-3.5,2.1-2.1c-0.1-0.1-0.4,0.2-0.1-0.1c-0.2,0.4-0.3,0.7-0.4,1.1c0.1-0.7,0-1.3-0.4-1.9l0.5,0.5
			c-0.6-0.3-1.7,0.5-1.3,1.2s1.6,0.9,1.9,0.2s-0.2-1.7-0.9-1.7c-1,0-1.2,1.4-0.8,2C586.7-425.2,584.1-423.7,583-425.3L583-425.3z"/>
		<path class="st1" d="M632.7-433c1.5,1.7,1.3,4.2-0.3,5.7c-0.4,0.3-0.8,0.6-1.3,0.8c-1.5,0.4-3-0.1-4-1.3c-1.1-1.2-1.3-3-0.5-4.4
			c0.8-1.2,2-1.9,3.4-1.9c1.4-0.3,2.7,0.7,3,2c0,0.2,0,0.3,0,0.5c-0.2,2.8-3.8,4.7-6.1,3c-0.6-0.4-0.9-1-0.7-1.7
			c0.4-1.4,1.5-2.5,2.9-3c0.7-0.2,1.4,0.1,1.7,0.7c0.5,0.8,1.4,1.8,1.4,2.7c-0.1,0.8-0.5,1.6-1.2,2.2c-1,1.1-2.9,1.7-4,0.3
			c-0.6-0.6-0.6-1.5,0-2.1c0.6-0.6,1.5-0.6,2.1,0c0.3,0.3,0.1,0.3-0.6,0c-0.1,0,0.1-0.1,0.2-0.1c0.3-0.3,0.5-0.6,0.7-1v1.5l-1.2-2
			l1.7,0.7c-0.4,0.2-0.7,0.5-0.8,0.9l-0.7-1.7c0.5,0.3,1.1,0.2,1.4-0.3c0.1-0.2,0.2-0.5,0.1-0.7l0.8,1.3c-0.9-0.6-2.2,0.2-1.2,1.2
			s1.6-0.7,1.1-1.3c-1.3-1.4,0.8-3.5,2.1-2.1L632.7-433z"/>
		<path class="st1" d="M597.1-446.7c-4.9-4.1-9.4-8.8-13.3-13.8c-1.9-2.4-3.9-4.6-0.7-6.6s10.6,1.4,13.8,2.4
			c5.8,1.8,11.4,4,16.7,6.8c1.7,0.9,0.2,3.5-1.5,2.6c-7.3-3.6-14.9-6.4-22.8-8.3c-3.2-0.8-5.2-1.3-2.3,2.5c1.1,1.4,2.2,2.7,3.4,4
			c2.7,3,5.7,5.8,8.8,8.4C600.7-447.6,598.5-445.5,597.1-446.7L597.1-446.7z"/>
		<path class="st1" d="M596.4-451c5.5-1.7,10.8-3.7,16.1-5.8c1.8-0.7,2.6,2.2,0.8,2.9c-5.3,2.2-10.6,4.1-16.1,5.8
			C595.3-447.5,594.5-450.4,596.4-451L596.4-451z"/>
		<path class="st1" d="M656.5-460.2c-5.5-8,2.8-18,9.5-22.1c4-2.3,8.8-2.6,13-0.8c1.8,0.8,3.4,2.1,4.6,3.7c1.7,2.1,1.9,1.4,4.3,0.5
			c8.1-3.1,17.8,1.2,22,8.5c5.5,9.6-11.6,16.8-18.2,17.8c-1.9,0.3-2.7-2.6-0.8-2.9c7.8-1.2,22.7-8.2,13.3-17.3
			c-2.5-2.5-6.2-3.6-9.5-3.9c-3.6-0.4-6,1.3-9.3,2.2c-1.1,0.3-2.2-0.1-2.9-0.9c-0.6-0.9-1.2-1.8-1.8-2.8c-1.7-2.1-4.7-2.8-7.2-3
			c-8-0.5-19.6,11.9-14.4,19.6C660.2-460.1,657.6-458.6,656.5-460.2L656.5-460.2z"/>
		<path class="st1" d="M685.3-512.4c-0.4-6,0.3-12.1,2.1-17.9c1.2-3.9,1.8-5-1.4-8c-2.9-2.7-6.2-5-9.7-6.8c-1.7-0.9-0.2-3.5,1.5-2.6
			c3.2,1.8,6.2,3.8,9,6.1c1.8,1.4,4.6,3.4,5.2,5.8c0.6,2.3-1.6,5.8-2.3,8c-1.4,5-1.9,10.2-1.5,15.4
			C688.4-510.5,685.4-510.5,685.3-512.4L685.3-512.4z"/>
		<path class="st1" d="M644.2-520.2c1.7-4.7,3.1-9.4,4.4-14.2c1.1-4,0-5.8-2.9-8.2l-6.9-5.8c-1.5-1.2,0.6-3.3,2.1-2.1l8.3,6.9
			c1,0.9,3.5,2.5,3.4,4.2c-0.5,6.8-3.3,13.7-5.5,20C646.5-517.7,643.6-518.5,644.2-520.2L644.2-520.2z"/>
		<path class="st1" d="M91.8-631.5c-4.5,12.2-13.8,21.9-27,24.1c-11.4,1.9-23.3-4-27.7-14.9c-4.2-10.5-2.1-22.3,7-29.5
			c8.7-6.6,20.5-7.2,29.8-1.4l-2,2.1c-7.2-9.7-14.8-21.4-9.6-33.8c4-9.5,15.3-11.6,24.4-10c27.7,4.7,22,44.4,10.8,61.4
			c-1.1,1.6-3.7,0.1-2.6-1.5c5.5-8.3,8.6-18.1,8.8-28.1c0.3-11-2.5-23.4-13.6-27.8c-9.1-3.6-21.3-1.7-25.5,8.1
			c-4.5,10.8,3.8,22,9.8,30.2c0.9,1.2-0.8,2.8-2.1,2.1c-7.9-5-17.6-4.5-25.5,0.5c-8.8,5.5-10.6,16.7-7.4,25.9
			c3.7,10.9,15.2,15.5,26,13.7c11.3-1.9,19.5-11.5,23.3-21.8C89.6-634.1,92.5-633.3,91.8-631.5L91.8-631.5z"/>
		<path class="st1" d="M91.6-628.6c-6.4,11.7-11,27-1,38.3c6.8,7.6,15.4,2.6,16.5-6.1c0.8-6.4-2.6-13.2-3.8-19.4
			c-0.2-1.3,1.5-2.7,2.5-1.5c12.6,15.4,33.1-0.5,40.6-12.9c6.6-11-6.3-18.4-15.5-19.2c-9.5-0.8-18.8,3.8-27.2,7.7
			c-1.7,0.8-3.3-1.8-1.5-2.6c10.8-5.1,21.8-9.8,33.9-7.4c9.3,1.9,17,10,14.3,19.7c-1.3,4.7-5.2,8.7-8.5,12.1c-3.6,4-8,7.3-13,9.5
			c-8.7,3.5-19.1,2.7-25.3-4.9l2.5-1.5c1.6,8.6,5.9,16.9,2.6,25.6c-2.4,6.3-8.5,8.9-14.7,6.7C86.7-587,83-595.6,82-602.7
			c-1.4-9.7,2.5-19.2,7-27.5C89.9-631.8,92.5-630.3,91.6-628.6L91.6-628.6z"/>
		<path class="st1" d="M85.5-617.7c-10.8,16.2-25.7,29.3-43.1,38.1c-1.7,0.9-3.2-1.7-1.5-2.6c17-8.5,31.4-21.3,42-37
			C84-620.8,86.6-619.3,85.5-617.7L85.5-617.7z"/>
		<path class="st1" d="M85.3-620.7c-5.7,16.8-11.5,34.4-8.4,52.4c0.3,1.9-2.6,2.7-2.9,0.8c-3.2-18.6,2.5-36.5,8.4-54
			C83-623.3,85.9-622.5,85.3-620.7L85.3-620.7z"/>
		<path class="st1" d="M85.3-625.4c-6.2,4-15.8,2.8-19.9-3.7c-6.6-10.3,8.1-12.5,15.4-10.5l-1.7,2.2c-2.5-4.8-3-10.4-1.2-15.5
			c1-3.1,4.4-7.1,8.1-6.3c10.7,2.4,7.3,18.7,2.9,25c-1.1,1.6-3.7,0.1-2.6-1.5c3.5-5.1,5.1-11.7,2.5-17.6c-1.1-2.7-3.2-3.2-6.5-1.4
			c-1,1.2-1.7,2.6-2.1,4.2c-1.2,3.9-0.3,8.1,1.5,11.6c0.4,0.7,0.1,1.7-0.6,2.1c-0.3,0.2-0.7,0.2-1.1,0.1c-3-0.8-6.1-0.9-9.1-0.2
			c-6,1.3-3.4,6.6,0,9c3.9,2.6,9,2.6,12.9,0C85.4-629,86.9-626.4,85.3-625.4L85.3-625.4z"/>
		<path class="st1" d="M87.5-624c1.3,2.5,3,4.8,5,6.7l4.4-1.1c0.3-1.6,0.1-3.2-0.5-4.7c-0.5-1.6-1-3-1.3-4.6
			c-0.2-0.8,0.3-1.6,1.1-1.8c0.5-0.1,1,0,1.4,0.4c4.4,3.7,9.2,7.4,15.2,5.3l-1.1,1.4c0.1-9.8-16.8-8.9-23.3-8.9
			c-0.8,0-1.5-0.7-1.5-1.5v-7.2c0-0.8,0.7-1.5,1.5-1.5c0.8,0,1.5,0.7,1.5,1.5v7.2l-1.5-1.5c8.5-0.1,26.4-0.5,26.3,11.9
			c0,0.7-0.5,1.3-1.1,1.5c-7.1,2.5-12.9-1.7-18.2-6l2.5-1.5c1,5,4.6,12-1.7,15c-4.8,2.3-9.7-5.8-11.4-9
			C84-624.2,86.6-625.7,87.5-624L87.5-624z"/>
		<path class="st1" d="M69.7-630.7c-0.2-2.7-0.2-5.5,0-8.2c0.1-1.1,1.7-2.2,2.6-1.1c2.4,3,4.2,6.5,5.2,10.2l-2.9,0.4
			c0.3-2.8,0.5-5.5,0.6-8.2c0.1-1.4,2.1-2.2,2.8-0.8l5.7,10.7l-2.8,0.8l1.9-26.6c0.1-1.6,2.7-2.2,3-0.4c0.5,3.6,1,7.1,1.5,10.7h-2.9
			c0.7-2.8,0.8-5.7,0.2-8.5l2.9-0.4c0.9,10,1.8,20,2.6,30l-2.9-0.4c0.4-3.1,0.8-6.2,1.3-9.4c0.2-1.5,2.5-1.3,2.9,0
			c0.9,3.4,1.3,6.9,1.4,10.4h-3c0-3.6,1.6-6.9,4.3-9.2c0.6-0.6,1.5-0.6,2.1,0l2.7,3.5l-2.3,0.3c0.9-1.6,2.1-3,3.5-4.3
			c0.8-0.7,2.3-0.5,2.5,0.7c0.3,1.8,0.7,3.6,1.3,5.3l-2.7-0.3c0.5-0.9,0.9-1.8,1.4-2.7c0.3-0.6,1-0.9,1.7-0.7
			c1.1,0.5,2.4,0.7,3.6,0.6c1.9,0.1,1.9,3.1,0,3c-1.5,0-3-0.3-4.4-0.8l1.7-0.7c-0.5,0.9-0.9,1.8-1.4,2.7c-0.4,0.7-1.4,0.9-2.1,0.5
			c-0.3-0.2-0.6-0.5-0.7-0.9c-0.5-1.8-1-3.5-1.3-5.3l2.5,0.7c-1.2,1.1-2.3,2.3-3.1,3.7c-0.4,0.7-1.4,1-2.1,0.5
			c-0.1-0.1-0.2-0.1-0.3-0.2l-2.7-3.5h2.1c-2.2,1.7-3.4,4.4-3.5,7.1c0,0.8-0.7,1.5-1.5,1.5c-0.8,0-1.5-0.7-1.5-1.5
			c0-3.3-0.4-6.5-1.3-9.6h2.9c-0.4,3.1-0.8,6.2-1.3,9.4c-0.2,1.8-2.8,1.2-2.9-0.4c-0.9-10-1.7-20-2.6-30c-0.1-1.7,2.6-2,3-0.4
			c0.8,3.3,0.7,6.8-0.1,10.2c-0.3,1.4-2.7,1.5-2.9,0c-0.5-3.6-1-7.1-1.5-10.7l2.9-0.4L84-626.8c-0.1,1.4-2,2.2-2.8,0.8l-5.7-10.7
			l2.8-0.8c-0.2,2.8-0.4,5.5-0.6,8.2c0,0.8-0.7,1.5-1.6,1.5c-0.6,0-1.2-0.4-1.4-1.1c-0.9-3.2-2.4-6.2-4.4-8.9l2.6-1.1
			c-0.2,2.7-0.2,5.5,0,8.2C73-628.7,70-628.7,69.7-630.7L69.7-630.7z"/>
		<path class="st1" d="M1070.9-227.3c-16-30.4-55.2-22.8-81.9-15.1c-27.4,7.8-58.3,14.8-85.9,3.7c-10.8-4.3-19.6-12.4-24.8-22.7
			c-5.5-11.1-3.3-23.5,0.4-34.9c7.2-22.4,23-41.2,42.2-54.4c37.7-26,90.3-27.6,126,2.6c18.2,15.4,29.9,37,36.7,59.5
			c3.5,11.6,5.4,23.6,6.9,35.6c1.2,9.6-0.6,18-4.7,26.7c-0.8,1.8-3.4,0.2-2.6-1.5c2.7-5.7,4.6-11.3,4.8-17.6
			c0.2-6.6-1.3-13.2-2.2-19.6c-2.2-15.2-6.7-30.1-13.2-44.1c-12-25.5-33.3-46.6-60.6-54.9c-52.8-15.9-114.1,17.9-130.8,69.9
			c-3,9.5-4.5,19.3-1.2,28.9c3.3,9.6,11.2,16.8,19.7,21.6c19.6,11,46,8.7,67.1,4.2c21.3-4.6,41.7-13.4,63.8-13
			c17.2,0.3,34.8,8.1,43,23.8C1074.4-227.1,1071.8-225.6,1070.9-227.3L1070.9-227.3z"/>
		<path class="st1" d="M1071.4-224.9c-27.9,0.8-52.9,17.4-64.4,42.8l-2.4-1.8c7-8.3,18.2-6.9,27.8-5.9c13.4,1.4,25.9-3.4,33.5-14.9
			c1.1-1.6,3.7-0.1,2.6,1.5c-5.8,8.9-15,14.8-25.5,16.4c-11.7,1.8-27.1-5.7-36.2,5c-1.2,1.4-3-0.4-2.3-1.8
			c11.7-26.1,38.4-43.7,67-44.3C1073.3-228,1073.3-225,1071.4-224.9L1071.4-224.9z"/>
		<path class="st1" d="M1070.6-203.8c0.7,14.8,14.3,23,27.7,24.7c8.3,1.1,19.4-2.1,25.4,5.5l-2.6,1.1c0.1-22.7-9.4-52.3-36.7-53.1
			c-1.9-0.1-1.9-3.1,0-3c11.5,0.3,22.2,6.6,28.9,15.8c8.5,11.7,10.8,26.1,10.8,40.2c0,1.2-1.7,2.1-2.6,1.1c-4-5-10.9-4.4-16.7-4.3
			c-6.3,0.2-12.7-0.9-18.6-3.3c-10.3-4.4-18.1-13.2-18.7-24.8C1067.5-205.8,1070.5-205.8,1070.6-203.8L1070.6-203.8z"/>
		<path class="st1" d="M935.5-264.3c0.2-2.7,1-5.9,3.9-6.9c2.1-0.9,4.5,0.1,5.4,2.2c0.2,0.5,0.3,0.9,0.3,1.4c0.3,3-1.6,6.4-4.6,7
			c-3.3,0.6-5.5-2.7-4.8-5.6c0.6-2.7,2.9-5,5.8-4.8c2.6,0.4,4.5,2.7,4.4,5.3c-0.2,2.9-3.8,4.9-5.8,2.3c-1.2-1.7-1.8-6.2,1.3-6
			c0.7,0,1.3,0.5,1.5,1.1c0.4,1.5-0.1,3-1.3,3.9c-1.5,1-3.2-0.4-3.9-1.8c-0.3-0.6-0.2-1.3,0.2-1.8c1.1-1,2.8-0.9,3.8,0.2
			c0.1,0.2,0.3,0.3,0.4,0.5c0.9,1.9,0,3.6-1.5,4.9c-0.5,0.5-1.2,0.6-1.8,0.2c-1.4-0.9-2.1-2.6-1.6-4.1c0.4-1.9,3.3-1.1,2.9,0.8
			c-0.1,0.3,0,0.6,0.3,0.8l-1.8,0.2c0.2-0.2,0.4-0.4,0.6-0.6l0.3-0.4c0.1-0.3,0.4-0.4,0.7-0.4c0.1-0.6,0.2-1.2,0.2-1.8
			c0.2,0.4,0.6,0.7,1,0.9h-1.5c0.2-0.2,0.4-0.5,0.3-0.8l1.4,1.1c0.5-0.4,0.7-0.5,0.6,0c0,0.2,0.1,0.4,0.1,0.6
			c0.1,0.5,0.3,0.9,0.6,0.4s-0.3-1.8-0.8-2.2c-2-1.5-3.6,1.8-3.2,3.4c0.4,1.6,2.2,0.4,2.7-0.4c0.5-0.8,1.1-2.8,0.4-3.7
			c-0.5-0.6-1.7-0.1-2.1,0.3c-1,0.9-1.1,2.5-1.2,3.6C938.3-262.3,935.3-262.3,935.5-264.3L935.5-264.3z"/>
		<path class="st1" d="M876.1-269.7c14.8-13.9,33.4-23.1,53.4-26.4c18.2-3.1,41.2-2.2,54.8,11.8c1.3,1.4-0.8,3.5-2.1,2.1
			c-13.4-13.7-35.9-13.8-53.5-10.8c-19,3.3-36.5,12.2-50.5,25.4C876.8-266.2,874.7-268.3,876.1-269.7L876.1-269.7z"/>
		<path class="st1" d="M768.2-384.2c11.8-26.9,24.9-53.2,39.4-78.7c0.4-0.7,1.4-0.9,2.1-0.5c0.2,0.1,0.4,0.3,0.5,0.5
			c6.5,10.5,12.9,21.1,19.4,31.6l-2-0.5c24.8-12.2,23.1-47.9,47.4-61.1c0.7-0.4,1.7-0.2,2.1,0.6c0.1,0.1,0.1,0.2,0.1,0.3l7.7,28.4
			l-2.5-0.7l41.5-52.4c1-1.2,2.9,0.1,2.5,1.5c-9.2,33.2-24.1,64.5-43.8,92.7c-0.7,0.9-2.5,1-2.7-0.4c-1.2-7.7-4.4-15-9.3-21.1
			l2.3-0.3l-36.5,53.7c-0.4,0.7-1.3,1-2.1,0.5c-8.2-5.8-14.8-13.4-19.4-22.3h2.6c-9.1,15.8-20.6,30.2-33.9,42.6
			c-0.5,0.5-1.2,0.6-1.8,0.2L768-379.8c-1.5-1.1,0-3.7,1.5-2.6l13.9,10.2l-1.8,0.2c13.2-12.3,24.4-26.4,33.5-42
			c0.4-0.7,1.4-0.9,2.1-0.5c0.2,0.1,0.4,0.3,0.5,0.5c4.3,8.5,10.5,15.8,18.3,21.3l-2,0.5c12.2-17.9,24.3-35.8,36.5-53.7
			c0.4-0.7,1.4-1,2.1-0.5c0.1,0.1,0.2,0.1,0.3,0.2c5.2,6.5,8.7,14.2,10,22.4L880-424c19.6-28,34.3-59.1,43.5-92l2.5,1.5l-41.5,52.4
			c-0.6,0.6-1.6,0.6-2.1,0c-0.2-0.2-0.3-0.4-0.4-0.6c-2.6-9.5-5.1-18.9-7.7-28.4l2.2,0.9c-24.1,13.1-22.3,48.8-47.4,61.1
			c-0.7,0.4-1.6,0.1-2-0.5c-6.5-10.5-12.9-21.1-19.4-31.6h2.6c-14.5,25.5-27.7,51.8-39.4,78.7C770.1-380.9,767.5-382.4,768.2-384.2
			L768.2-384.2z"/>
		<path class="st1" d="M431.9-225.9c-11.9,15.2-38.1,17.1-50.4,1.2c-6.2-8.1-8.1-18.3-6.2-28.3c2.3-11.7,11.4-18.4,20.8-24.4
			c11.1-7.1,22.2-12.5,35.6-10.2c12.3,2.1,25,10,33.2,19.2c8,9,8.7,20,2.7,30.2c-5.5,9.4-15.3,18.2-26.8,17.7
			c-4.2-0.2-8.1-2.1-10.9-5.2c-1.3-1.4,0.8-3.5,2.1-2.1c8.9,9.5,21.3,2,28.3-5.7c4-4.2,6.8-9.3,8.2-14.9c1.5-6.6-1.7-13-5.8-18
			c-7-8.4-18.2-14.6-28.5-17.6c-12.3-3.7-23.4,0.9-33.8,7.4c-9.1,5.6-18.1,11.3-21.6,21.9c-2.9,8.8-1.2,18.7,3.7,26.4
			c10.4,16.4,36,14.6,47.2,0.3C430.9-229.5,433.1-227.4,431.9-225.9L431.9-225.9z"/>
		<path class="st1" d="M429.6-226.9c3.6,3.3,3.8,7.9,4.1,12.5c0.4,6.5,2,12.9,4.7,18.8c5.3,11.8,14.6,21.3,26.2,27
			c1.7,0.9,0.2,3.4-1.5,2.6c-10.2-5.1-18.8-13.1-24.6-23c-3-5.1-5.2-10.7-6.5-16.4c-1.4-5.9,0.2-15.1-4.5-19.4
			C426.1-226,428.2-228.2,429.6-226.9z"/>
		<path class="st1" d="M437.5-196.2c0.9,6.6,9,8.7,14.5,9.4c5.3,0.5,10.5-0.5,15.2-2.9l-0.7,1.7c-2.8-15-21.9-19-30.1-5.9
			c-1,1.6-3.6,0.1-2.6-1.5c9.5-15.1,32.3-11,35.6,6.6c0.2,0.7-0.1,1.3-0.7,1.7c-10,4.8-32.3,5.9-34.3-9.1
			C434.2-198.1,437.2-198.1,437.5-196.2L437.5-196.2z"/>
		<path class="st1" d="M437.4-197.4c8.5,2.8,17.3,4.8,26.2,6c1.9,0.2,1.9,3.2,0,3c-9.2-1.2-18.2-3.2-27-6.1
			C434.8-195.1,435.6-198,437.4-197.4L437.4-197.4z"/>
		<path class="st1" d="M359.7-357c-4.7,13.1-20.5,20.4-33.2,13.8c-11.7-6.1-13.8-23.6-5.4-33l1.1,2.6c-10.6-0.8-19.5-8.2-22.1-18.5
			c-2.6-10.2,3.3-21.2,12.2-26.1l-0.3,2.4c-15-12.1-17.2-34.1-5.1-49c1.2-1.4,2.4-2.8,3.8-4c5.6-5.4,12.7-7.4,19.9-9.7
			c8-2.6,12.8-9.2,19.5-13.8c5.6-3.7,12-6,18.7-6.9c11.9-1.7,24.4,1.9,32.2,11.4l-2.4,0.3c5.9-9.1,16.6-12.6,27-11.3
			c5.6,0.7,10.8,3.1,15.6,5.9c5.9,3.6,10.1,9,15.6,13c2.9,2.1,9.5-1,12.6-1.7c2.7-0.5,5.5-0.8,8.3-0.8c6.1-0.1,12.1,1.2,17.7,3.7
			c10.7,4.8,19.1,13.7,23.3,24.8c2,5.5,3,11.3,2.8,17.1c-0.1,4.8,0.3,8.5,3.1,12.5c2.2,2.9,4.1,6,5.8,9.2c5,10.5,5,22.9,1.7,33.8
			s-11,20.7-20.2,27.4c-4.6,3.4-9.6,6.3-14.9,8.5c-3.1,1.3-5.5,2.3-8,4.7c-2.1,2-4.4,3.7-6.9,5.3c-9.9,6.5-22.3,8.9-33.9,7.8
			c-5.8-0.6-11.4-2.3-16.6-4.9c-2.8-1.3-5.6,0.8-8.3,1.8c-3.4,1.2-6.8,2.1-10.3,2.7c-13,2.4-26.4,0.8-38.6-4.4
			c-8.1-3.5-25.5-12.8-18.8-24.2c0.4-0.7,1.4-0.9,2.1-0.5c0.7,0.4,0.9,1.3,0.5,2c-4.6,7.7,6.7,14.4,12.2,17.4
			c6.2,3.3,12.9,5.6,19.8,6.7c6.8,1.1,13.7,1.2,20.5,0.2c3-0.5,6-1.1,8.9-2c3.4-1,6.6-3,9.9-4c1.5-0.4,3.6,1.5,4.8,2.1
			c2.8,1.3,5.8,2.3,8.8,3c6.5,1.5,13.3,1.6,19.8,0.4c5.8-1.1,11.4-3.2,16.4-6.2c5.1-2.9,8.4-7.9,13.9-9.9
			c26.5-9.6,46.6-38.5,34.4-66.5c-2.4-5.6-7.3-9.7-9-15.6c-0.9-3-0.4-6.4-0.3-9.4c0-3.9-0.6-7.8-1.7-11.6
			c-4-14.3-15.9-24.7-30.1-28.1c-8.4-2-16.2-0.5-24.3,1.8c-6.8,1.9-10.7-4-15.1-8c-12.3-11-35-18.2-46-1.3c-0.4,0.7-1.4,1-2.1,0.5
			c-0.1-0.1-0.2-0.1-0.3-0.2c-7.5-9.2-19.1-12.1-30.5-10.5c-5.5,0.8-10.8,2.8-15.5,5.7c-5.5,3.3-9.5,8.5-14.9,12s-12.4,4.1-18.2,7
			c-6.3,3.1-11.1,8.6-14.3,14.8c-6.8,13.2-2.1,29.5,8.9,38.8c0.6,0.6,0.6,1.6,0,2.1c-0.1,0.1-0.2,0.2-0.3,0.2
			c-8.1,4.5-12.5,13.6-10.8,22.7c1.6,9,10.4,15.6,19.2,16.3c0.8,0,1.5,0.7,1.5,1.6c0,0.4-0.2,0.7-0.4,1c-7.6,8.5-4.7,22.5,4.8,28.3
			c10.5,6.5,24.9-1.4,28.8-12C357.5-359.6,360.4-358.8,359.7-357L359.7-357z"/>
		<path class="st1" d="M394.7-492.3c-1.5-24.7-9.7-48.5-23.8-68.9c-0.4-0.7-0.2-1.6,0.5-2.1c0.1-0.1,0.2-0.1,0.4-0.1
			c18.3-2.7,36.8-2.7,55.1,0c0.8,0.2,1.2,1.1,1,1.8c-3.3,9.6-6.1,19.3-8.5,29.2c-1.2,4.9-2.2,9.9-3.1,14.8
			c-1.2,6.2-2.6,12.7,0.2,18.6c0.8,1.7-1.8,3.3-2.6,1.5c-4.2-8.8-0.9-19.3,1-28.4c2.6-12.4,6-24.6,10.1-36.6l1,1.9
			c-17.7-2.7-35.8-2.7-53.5,0l0.9-2.2c14.4,20.8,22.8,45.2,24.2,70.4C397.8-490.4,394.8-490.4,394.7-492.3L394.7-492.3z"/>
		<path class="st1" d="M424.7-377.9c1.7,5.9,9.2,8.9,14.3,5c4.6-3.6,3.2-11-0.8-14.3c-1.4-1.1,0.4-3,1.8-2.4
			c6.4,3,15.1,5.5,21.9,2.2c9.1-4.5,1.4-17-2.3-22.3c-1.1-1.6,1.5-3.1,2.6-1.5c3.1,4.3,8.7,4,12.3,0.7c4.1-3.8,3.2-10.2,0.9-14.6
			c-4.5-8.7-15.8-11.8-24.8-10.1c-1.9,0.4-2.7-2.5-0.8-2.9c11.9-2.3,29.3,3.9,30.5,18.1c0.5,5.9-1.9,11.5-7.3,14.1
			c-4.8,2.4-10.5,0.2-13.4-3.8l2.6-1.5c4.4,6.2,10.9,17.3,3.8,24.3s-19.5,3.7-27.4-0.1l1.8-2.4c5.7,4.5,6.6,15.4-0.4,19.5
			c-6,3.4-13.6,1.3-17-4.7c-0.5-0.8-0.8-1.7-1.1-2.6C421.3-379,424.2-379.8,424.7-377.9L424.7-377.9z"/>
		<path class="st1" d="M335.7-412.2c-6.6-3.7-7.8-11.6-4.9-18.1c1.8-4.1,5.8-7.1,9.6-9.3c2.3-1.3,1.5-2.9,1.8-5.4
			c0.3-2.1,1-4,1.9-5.9c8.4-18.2,34.4-11.1,36.1,7.4c0.2,1.9-2.8,1.9-3,0c-0.9-9.3-9.7-16.5-19-15.1c-8.7,1.4-14,10.8-13,19
			c0,0.5-0.3,1-0.7,1.3c-4.7,2.1-8.6,4.9-11.1,9.4c-2.7,4.9-1,11.1,3.9,14c0.7,0.4,1,1.3,0.5,2.1S336.5-411.7,335.7-412.2
			L335.7-412.2z"/>
		<path class="st1" d="M111.5-836.9c-9.4,12.1-10.2,27.7-6.4,42c4.2,15.3,14.6,27.6,26.6,37.5c12,9.9,26.2,17.3,39.9,24.7l49.4,26.7
			L219-704c-8.7-16.8-13-35.1-15.9-53.7c-3-19.2-4.1-39.1-9.8-57.8c-5.4-17.3-17.3-30.1-34.8-35.2c-15.2-4.4-32.6-1.7-45.1,8.2
			c-1.5,1.2-3.6-0.9-2.1-2.1c24.5-19.4,62.8-12.3,78.8,14.4c10.5,17.5,11.4,39.9,14.1,59.6c3,22.4,6.8,44.9,17.4,65.2
			c0.3,0.8,0,1.7-0.7,2c-0.4,0.2-0.9,0.2-1.3,0c-18-9.7-36-19.4-54-29.1c-14.8-8-29.5-16.5-42-28c-20.9-19.3-33.5-53.7-14.2-78.5
			C110.6-840.6,112.7-838.5,111.5-836.9L111.5-836.9z"/>
		<path class="st1" d="M114.5-844.8c9.2,29.6,27.7,55.4,52.8,73.6c1.6,1.1,0.1,3.7-1.5,2.6c-25.7-18.6-44.7-45.1-54.1-75.4
			C111.1-845.8,114-846.6,114.5-844.8L114.5-844.8z"/>
		<path class="st1" d="M108.6-841.6l0.2,0.1c0.8,0.2,1.2,1.1,1,1.8l-0.1,0.3c-0.2,0.7-0.8,1.1-1.5,1.1c-2.3-0.2-3.9-2.9-5.4-4.5
			c-3.5-3.8-6.8-7.8-10-11.9c-5.7-7.4-10.8-15.2-15.3-23.4c-0.4-0.7-0.2-1.6,0.5-2.1c1.6-0.9,4.9-3.5,7-2.4
			c3.4,1.7,4.6,7.3,6.5,10.4c3,4.7,6.7,9,10.1,13.4c3.6,4.6,7.1,10.3,13,12c1.8,0.5,1.1,3.5-0.8,2.9c-8-2.4-12.7-10.8-17.6-17
			c-2.9-3.6-5.7-7.4-8.2-11.3c-1.1-1.9-2.2-3.9-3-6c-1.2-2.7-3.7-0.3-5.5,0.6l0.5-2c3.9,7.1,8.2,13.9,13,20.4
			c2.7,3.6,5.5,7.1,8.4,10.5c1.1,1.3,2.3,2.6,3.5,3.8c1.2,1.2,2.2,2.4,3.3,3.6l-1.5,1.1v-0.4l1,1.8l-0.2-0.1
			C105.9-839.4,106.7-842.3,108.6-841.6L108.6-841.6z"/>
		<path class="st1" d="M164.8-198.4c-10.1,1.4-20.7-0.4-30.3-3.6c-10.9-3.5-18.4-10.5-25.6-19.2c-16.1-19.6-24.3-44.6-23-69.9
			c1.3-24,12-47.6,30.3-63.4c20.1-17.3,48.3-23.2,74.2-21.4c19.4,1.4,36.7,10.8,46.2,28c0.8,1.5-1.2,3.1-2.4,1.8
			c-5.9-6.8-16.1-3.1-23.2-0.7c-8.5,2.8-16.6,6.5-24.3,11c-15,8.7-27.4,21.2-35.8,36.4c-9.1,16.7-10.5,35.3-7.3,53.8
			c1.6,8.8,3.9,17.5,6.8,26c2.5,7.5,6.4,15.6,14.4,18.3c1.8,0.6,1,3.5-0.8,2.9c-7.1-2.4-11.3-8.1-14.3-14.8
			c-4.2-9.3-6.6-19.8-8.6-29.7c-4-20-2.2-39.8,7.3-57.9c9.1-17.4,24.3-30.7,41.4-40c8.5-4.6,17.5-8.2,26.8-10.8
			c6.8-1.9,15-2.3,20,3.4l-2.4,1.8c-15.6-28.1-49.9-30.3-78.3-24c-28,6.3-50.3,24.9-60.8,51.6c-10,25.5-7.3,54.2,5,78.4
			c5.7,11.3,14.4,23.9,25.2,30.9c9.5,6.2,22.5,8.5,33.7,8.5c1.7,0,3.4-0.1,5.1-0.4C165.9-201.6,166.7-198.7,164.8-198.4z"/>
		<path class="st1" d="M903.2-652c-12.8-17.9-11.2-43.3,3.3-59.7c8.4-9.6,21-14.7,33.1-17.7c12.3-3.1,25.8-3.7,37.7,1.2
			c20.2,8.4,26.7,33.5,20.7,53c-6.9,22.5-30.4,39.7-52.6,44.9c-19.5,4.6-32.6-10.1-42.9-24.3c-1.1-1.6,1.5-3.1,2.6-1.5
			c7.2,10,15.4,20.6,28.1,23.3c13.6,2.9,29.2-6.3,39.7-14c20.2-14.7,31.7-41.3,18.8-64.6c-14.1-25.3-51.3-19.1-72.2-6.9
			c-22.4,13-28.7,43.8-13.7,64.8C906.9-651.9,904.3-650.4,903.2-652L903.2-652z"/>
		<path class="st1" d="M905.1-649c-16.1,24-33.5,47.2-52.2,69.2c-1.2,1.5-3.4-0.6-2.1-2.1c18.5-21.9,35.8-44.8,51.7-68.6
			C903.5-652.1,906.1-650.6,905.1-649L905.1-649z"/>
		<path class="st1" d="M894.4-686.4l-87-0.8c-0.8,0-1.5-0.7-1.5-1.5s0.7-1.5,1.5-1.5l87,0.8c0.8,0,1.5,0.7,1.5,1.5
			S895.2-686.4,894.4-686.4z"/>
		<path class="st1" d="M946.1-631.3c-2.6,25.2-3.7,50.6-3.2,76c0,1.9-3,1.9-3,0c-0.5-25.4,0.5-50.8,3.2-76
			C943.3-633.2,946.3-633.3,946.1-631.3z"/>
		<path class="st1" d="M972.5-646c14.7,24.1,31.6,46.8,49.5,68.6c1.2,1.5-0.9,3.6-2.1,2.1c-18-22-35.1-44.9-49.9-69.2
			C968.9-646.1,971.5-647.6,972.5-646L972.5-646z"/>
		<path class="st1" d="M996.9-694.3c29.5,6.2,59.4,9.9,89.5,11c1.9,0.1,1.9,3.1,0,3c-30.3-1.2-60.5-4.9-90.3-11.2
			C994.2-691.9,995-694.8,996.9-694.3L996.9-694.3z"/>
		<path class="st1" d="M907-715.8L863-765c-1.3-1.4,0.8-3.6,2.1-2.1l44,49.2C910.4-716.5,908.3-714.4,907-715.8z"/>
		<path class="st1" d="M946.4-734.4c0.7-20,1.4-40,2.2-60c0.1-1.9,3.1-1.9,3,0c-0.7,20-1.4,40-2.2,60
			C949.3-732.5,946.3-732.4,946.4-734.4z"/>
		<path class="st1" d="M981.6-726.8c18.2-11.6,35.8-24,52.9-37.2c1.5-1.2,3,1.4,1.5,2.6c-17.1,13.1-34.7,25.5-52.9,37.2
			C981.4-723.2,979.9-725.8,981.6-726.8z"/>
		<path class="st1" d="M513.1-579.4c-6.8-5.4-5.2-16.1,2-20.2c8.1-4.6,18,2.2,19.9,10.3c2.4,10.2-6.2,18.8-15.6,20.4
			c-10.8,1.9-20.4-5.4-25.5-14.2c-5.7-9.7-4.7-21.5,5-27.9c8.7-5.8,21.2-5.8,30.9-2.8c9.9,3,17.4,11.2,19.5,21.3
			c2.4,11.6-3.1,23.3-11.4,31.2c-8.1,7.7-20.1,12.9-31.3,12.9c-12.1,0-22-9.8-27.9-19.4c-12.6-20.1-7.5-48.1,13.6-60
			c20.8-11.8,49.7-1.6,64.3,15.3c17.1,19.7,10.3,45.9-4.6,64.6c-1.2,1.5-3.3-0.6-2.1-2.1c9.5-11.9,16.1-26.8,13.4-42.3
			c-2.3-12.9-11.9-23.2-22.8-29.7c-12.1-7.2-27.6-9.7-41.2-5.6s-22.8,17.5-24.5,31.2c-1.8,15,5.8,30.7,17.6,39.7
			c13.1,10,30.7,3.7,42.2-5.8c11.7-9.7,16.8-27.8,6.6-40.4c-7.9-9.8-22.6-11.6-34-8.5c-5.5,1.5-10.7,4.6-13,10.1
			c-2,4.9-0.5,10.8,1.6,15.3c4.3,9.3,13.9,15.7,24.2,13.9c10.9-1.9,17.2-16.9,7.1-23.9c-9.9-6.9-21.5,6.9-11.9,14.5
			C516.8-580.3,514.7-578.2,513.1-579.4L513.1-579.4z"/>
		<path class="st1" d="M772-600.1c-4.1,6.1-10.5,10.2-17.7,11.4c-5.3,1-13.8-0.1-16-6.1c-5.1-14.8,17.8-25.2,28.9-26.6
			c1.9-0.2,6.5-1.6,7.8,0.3c3.4,4.8,6.9,9.5,10.3,14.3c3.7,5.1,12.7,13,6.8,19.4c-7.8,8.5-22.8,5.2-26.8-5.4
			c-0.7-1.8,2.2-2.6,2.9-0.8c3.1,8.2,14.6,10.6,21,4.8c5-4.4-3.8-12.8-6.5-16.6c-1.9-2.7-3.8-5.3-5.7-7.9c-1.9-2.6-3-5.7-6.6-5.5
			c-10.9,0.5-25.3,6.7-29.4,17.5c-3.4,9,7.9,10.5,13.8,9.4c5.9-1.2,11.1-4.7,14.4-9.8C770.4-603.2,773-601.7,772-600.1L772-600.1z"
			/>
		<path class="st1" d="M307.3-796.4c-14.4,4.7-35.8,1.1-41.6-15.1c-4.7-13,2.5-30,17.2-31.6c1.7-0.2,2.1,2.7,0.4,3
			c-9.6,1.7-20-3.9-23.3-13.4c-3.7-10.5-0.2-21.8,7.5-29.5c13.4-13.6,38.6-11.5,50.2,3.1l-2.4,0.3c11.9-16.7,27.8-33.3,50.1-29.7
			c21.2,3.3,33.6,25.7,27.9,45.7l-2.8-1.2c6.9-9.7,18.3-15.2,30.2-14.8c12.1,0.3,22.3,8,27.8,18.5c12.3,23.8-8.2,51.5-34.3,48.5
			c0.3-0.9,0.5-1.9,0.8-2.8c7.6,3.2,11.9,11.9,10.6,20C424-785,416-777.4,407-772.5c-18,9.7-41.5,6.3-56.8-7l2.5-0.7
			c-4.1,13.5-18.1,21.4-31.7,17.9c-13.4-3.6-20.5-19.9-16.5-32.5c0.6-1.8,3.5-1,2.9,0.8c-3.7,11.9,2.6,24.6,14.4,28.8
			c11.6,4,24.8-4.6,28-15.8c0.2-0.8,1.1-1.3,1.9-1c0.2,0.1,0.4,0.2,0.6,0.4c12.9,11.2,30.8,14.2,46.9,9.1
			c8.5-2.7,16.2-8.3,20.8-15.9c5-8.4,2.9-20.5-6.6-24.5c-1.4-0.6-0.7-3,0.8-2.8c11,1.2,21.2-3.3,28.4-11.5c7.6-8.7,8.2-21,3.8-31.3
			c-9.4-22-39.9-24-53.4-4.9c-0.9,1.3-3.2,0.6-2.7-1.2c5.2-17.6-4.9-36-22.4-41.1c-1.9-0.6-3.9-1-6-1.2c-19.4-2.2-34,14.5-44.1,28.7
			c-0.4,0.7-1.4,0.9-2.1,0.5c-0.1-0.1-0.2-0.1-0.3-0.2c-9.9-12.4-28.2-14.5-41.5-6.6c-8.1,4.8-12.7,14-12.6,23.3
			c0.1,10.8,10.2,20,21,18.1c0.1,1,0.3,2,0.4,3c-13.5,1.4-19,18.5-13.5,29.5c6.5,13.1,24.6,15.3,37.1,11.3
			C308.3-799.9,309-797,307.3-796.4L307.3-796.4z"/>
		<path class="st1" d="M662.4-895.9l-3-2.9c-1-1,0-3.1,1.5-2.5c50.9,20.5,102.3,40,154,58.4c1.8,0.6,1,3.5-0.8,2.9
			c-51.7-18.4-103.1-37.9-154-58.4l1.5-2.5l3,2.9C666-896.7,663.8-894.6,662.4-895.9L662.4-895.9z"/>
		<path class="st1" d="M656.3-904c3.4-22.7,18.5-41.9,39.7-50.6c13.7-5.5,28.8-8.5,43.5-10.6c13.3-1.9,26.9-1.8,39.8,1.9
			c11,3.1,20.8,9.5,28.1,18.4c7.5,9.4,10.2,21.6,11.6,33.2c1.8,14.8,2.1,30,2.2,44.9c0.1,9.2,0.8,21.2-8.2,26.6
			c-0.7,0.4-1.6,0.1-2-0.6c-0.4-0.7-0.1-1.6,0.5-2c9.6-5.7,6.8-22.5,6.6-31.7c-0.2-12.4-0.7-24.8-2.1-37.1
			c-1.3-12.1-4.6-24.1-12.6-33.5c-7.1-8.3-17.4-13.3-27.8-16.1c-12.7-3.4-26.3-2.5-39.1-0.5c-12.3,1.8-24.5,4.7-36.3,8.7
			c-21.8,7.8-37.6,26.9-41,49.8C658.8-901.3,656-902.1,656.3-904L656.3-904z"/>
		<path class="st1" d="M803.2-848.6c0-9,0-18,0-26.9c0-9.2-0.8-18.2-4.7-26.7c-6.1-13.4-18.7-23.3-32.5-27.9
			c-16.4-5.5-36.2-2.5-52.5,2.3c-16.6,4.9-32.1,16-37.9,32.8c-0.6,1.8-3.5,1-2.9-0.8c5.5-15.8,18.4-26.4,33.5-32.6
			c8.7-3.6,18-5.3,27.3-6.5c10.2-1.3,20.5-1.5,30.6,1c15.1,4,28,13.9,35.7,27.6c4,7.2,5.6,15.2,6.2,23.4c0.8,11.3,0.2,22.9,0.2,34.3
			c0,0.8-0.7,1.5-1.5,1.5S803.2-847.8,803.2-848.6L803.2-848.6z"/>
		<path class="st1" d="M703.1-910.9l7.5,2c0.8,0.2,1.3,1.1,1,1.9c-0.1,0.4-0.3,0.7-0.7,0.9c-2.5,1.8-5.8,2.3-8.7,1.4
			c-0.8-0.3-1.2-1.2-0.9-1.9c0.3-0.7,1-1.1,1.7-1c2.2,0.7,4.6,0.2,6.4-1.1l0.4,2.7l-7.5-2c-0.8-0.2-1.2-1.1-1-1.9
			C701.5-910.6,702.3-911.1,703.1-910.9L703.1-910.9z"/>
		<path class="st1" d="M728-922.5h6c0.8,0,1.5,0.7,1.5,1.5c0,0.2-0.1,0.5-0.2,0.7c-1.9,3.1-5.6,4.5-9.1,3.6
			c-0.8-0.3-1.2-1.2-0.9-1.9c0.3-0.7,1-1.1,1.7-1c2.2,0.6,4.5-0.3,5.7-2.2l1.3,2.3h-6c-0.8,0-1.5-0.7-1.5-1.5S727.1-922.5,728-922.5
			z"/>
		<path class="st1" d="M775-906.3l5.9,1.9c0.8,0.1,1.4,0.9,1.3,1.7s-0.9,1.4-1.7,1.3H776c-0.8,0-1.5-0.7-1.5-1.5s0.7-1.5,1.5-1.5
			h4.5c-0.1,1-0.3,2-0.4,2.9l-5.9-1.9C772.4-904,773.2-906.9,775-906.3L775-906.3z"/>
		<path class="st1" d="M751-894.3l6,2c0.6,0.2,1.1,0.8,1.1,1.4c-0.1,1.8-1.7,3.2-3.4,3c-0.7,0-1.4-0.3-2-0.8
			c-1.4-1.3,0.7-3.4,2.1-2.1c0,0,0.3-0.2,0.3-0.1l1.1,1.5l-6-2C748.4-892,749.2-894.9,751-894.3L751-894.3z"/>
		<path class="st1" d="M774.5-876l4.6,0.5c0.8,0,1.5,0.7,1.5,1.5c0,0.8-0.7,1.5-1.5,1.5l-4.6-0.5c-0.8,0-1.5-0.7-1.5-1.5v0
			C773-875.3,773.6-876,774.5-876C774.5-876,774.5-876,774.5-876L774.5-876z"/>
		<path class="st1" d="M843.9-151c-4.2-14.4-13.5-27-13.8-42.4c-0.2-10.4,6.9-22,18.1-22.9s17.5,9,17.9,19.1
			c0.3,7.3-2.9,14.6-5.5,21.3c-3.2,8.1-6.3,16.3-9.4,24.4c-0.7,1.8-3.6,1-2.9-0.8c4.2-10.9,8.8-21.8,12.6-32.9
			c2.1-6.1,3-12.3,1.1-18.6c-2-6.5-7.9-10.5-14.6-9.4c-13.1,2.2-15.5,17.1-13.4,27.8c2.3,11.8,9.5,22,12.8,33.5
			c0.2,0.8-0.3,1.6-1.1,1.8C844.9-149.8,844.1-150.2,843.9-151L843.9-151z"/>
		<path class="st1" d="M449.4-711.2l-8.1-22.3c-2.4-6.5-4.7-13-5-19.9c-0.5-9.7,6.4-20.1,16.8-19.8c10.8,0.3,15.4,13.3,14.4,22.2
			c-1.5,14.3-13.5,25-14.3,39.5c-0.1,1.9-3.1,1.9-3,0c0.6-9.5,5.3-17.6,9.5-25.9c5-9.9,8.7-23.9-2.4-31.3
			c-5.6-3.8-11.9-0.2-15.3,4.7c-3.5,5.1-3.1,11.7-1.9,17.4c2.5,11.8,8,23.3,12.1,34.6C453-710.1,450.1-709.4,449.4-711.2
			L449.4-711.2z"/>
		<path class="st1" d="M1084.5-883.4c-26.8,11.4-55.7,16.8-84.8,15.6c-22-0.9-55.8-4.1-65.1-28.2c-3.7-9.8-2.8-20.3,5-27.9
			c8.2-8,22.2-9.8,33-11.1c28.4-3.5,57.3,0.5,83.6,11.8c13.2,5.6,27.1,14.7,30.1,29.7c0.4,1.9-2.5,2.7-2.9,0.8
			c-2.6-12.8-13.6-20.5-24.5-25.9c-12.8-6.3-27-10.3-41-12.6c-14.4-2.3-29.1-2.6-43.6-0.9c-13,1.5-31.9,3.8-37.6,17.7
			c-5.3,12.9,4.1,26.4,14.6,32.9c12.4,7.7,28.8,9.4,43,10.5c30.3,2.2,60.7-2.9,88.6-14.9C1084.7-886.7,1086.3-884.2,1084.5-883.4
			L1084.5-883.4z"/>
		<path class="st1" d="M953.4-902.9h2c0.8,0,1.5,0.7,1.5,1.5s-0.7,1.5-1.5,1.5h-2c-0.8,0-1.5-0.7-1.5-1.5S952.6-902.9,953.4-902.9z"
			/>
		<path class="st1" d="M987.6-876.4c7.4-15.2,7.5-32.9,0.4-48.2l2.8-1.2c5.6,17.2,6,35.7,1.1,53.1c-0.2,0.8-1.1,1.2-1.9,1
			c-0.8-0.2-1.2-1-1-1.8c4.8-16.9,4.4-34.8-1.1-51.5c-0.5-1.6,2-2.7,2.7-1.2c7.6,16.3,7.4,35.1-0.4,51.2
			C989.4-873.1,986.8-874.6,987.6-876.4L987.6-876.4z"/>
		<path class="st1" d="M987.8-871.4c0.5-21.1,1-42.4-4.5-62.9c-0.4-1.6,2-2.7,2.7-1.2c8.4,18.2,10.5,38.7,5.7,58.2
			c-0.5,1.9-3.3,1.1-2.9-0.8c4.5-18.7,2.6-38.4-5.4-55.9l2.7-1.2c5.6,20.8,5.2,42.3,4.7,63.7C990.8-869.4,987.8-869.4,987.8-871.4
			L987.8-871.4z"/>
		<path class="st1" d="M986.8-872.1c6-18.5,5.7-38.5-0.8-56.8c-0.6-1.6,1.9-2.6,2.7-1.2c9.5,16.7,11.6,36.7,5.7,55.1
			c-0.6,1.8-3.5,1.1-2.9-0.8c6.6-20.9,7.6-44.6-4.6-63.7c-0.9-1.4,1.3-3.2,2.4-1.8c11.3,14.2,16,32.5,12.9,50.3
			c-0.3,1.9-3.2,1.1-2.9-0.8c2.8-16.8-1.6-34-12.2-47.4l2.3-1.8c12.6,19.8,11.7,44.4,4.9,66l-2.9-0.8c5.7-17.6,3.7-36.7-5.4-52.8
			l2.7-1.2c6.7,18.9,6.9,39.4,0.8,58.5C989.1-869.5,986.2-870.3,986.8-872.1L986.8-872.1z"/>
		<path class="st1" d="M996.2-877.6c6.8-17.8,6.7-37.6-0.1-55.4l2.9-0.8c6.5,19,6.5,39.7,0.1,58.7l-2.7-1.2
			c9.1-15.4,10.6-34.3,3.8-50.9l2.9-0.8c5.6,18.5,11.1,39.2,1.6,57.4c-0.8,1.5-3.2,0.5-2.7-1.2c4.2-14.2,5.6-29,4.2-43.7
			c-0.2-1.9,2.8-1.9,3,0c1.4,15,0,30.1-4.3,44.5l-2.8-1.2c9.1-17.4,3.5-37.5-1.9-55.1c-0.6-1.9,2.2-2.5,2.9-0.8
			c7,17.4,5.5,37.1-4.1,53.2c-0.8,1.4-3.3,0.5-2.7-1.2c6.3-18.5,6.3-38.6-0.1-57.1c-0.6-1.8,2.2-2.6,2.9-0.8c7,18.3,7.1,38.6,0.1,57
			C998.5-875,995.6-875.8,996.2-877.6L996.2-877.6z"/>
		<path class="st1" d="M1031.2-875.6c7.4-15.3,8.7-32.8,3.8-49.1c-0.6-1.9,2.3-2.6,2.9-0.8c6,17.4,7.7,35.9,5,54.1l-2.9-0.8
			c3.5-16,7-34.6-3.5-48.8l2.7-1.2c5.1,14.3,7.5,29.4,7.2,44.5l-3-0.4c4.1-16.4,3.2-33.6-2.6-49.4l2.9-0.4l5.4,50.1l-2.8-0.8
			c5.6-10.1,6.7-22.1,3.1-33.1c-0.6-1.8,2.3-2.6,2.9-0.8c3.9,11.8,2.7,24.6-3.3,35.4c-0.8,1.4-2.7,0.6-2.8-0.8l-5.4-50.1
			c-0.2-1.8,2.4-1.9,2.9-0.4c5.9,16.4,6.8,34.1,2.6,51c-0.2,0.8-1.1,1.3-1.9,1c-0.6-0.2-1.1-0.8-1.1-1.4c0.4-14.9-2-29.7-7-43.7
			c-0.6-1.7,1.8-2.4,2.7-1.2c11,14.9,7.5,34.3,3.8,51.1c-0.4,1.9-3.2,1.1-2.9-0.8c2.5-17.7,0.8-35.7-5.1-52.6l2.9-0.8
			c5.1,17,3.6,35.4-4.2,51.4C1032.9-872.3,1030.3-873.9,1031.2-875.6L1031.2-875.6z"/>
		<path class="st1" d="M995.8-873.1c-7.3,16.9-10.4,35.2-9,53.6c0.3,3.9,1.2,7.7,3.7,10.9c4.3,5.5,8.6-1,10.5-4.8
			c4.2-8.8,6.6-18.3,7-28l3,0.4c-1.4,9.8,6.3,16.6,14,20.9c3.7,2.2,7.7,3.9,11.8,5.2c5.7,1.7,8.5-4.5,9.7-8.8
			c4.2-15.7-2.4-34.3-12.3-46.3c-1.2-1.5,0.9-3.6,2.1-2.1c6.7,8.1,11.3,17.8,13.2,28.2c1.7,8.9,2.2,20.9-3.5,28.5
			c-6.1,8.1-17.4,0.7-23.9-3c-8.6-4.8-15.3-13.2-13.9-23.5c0.2-1.7,3-1.3,2.9,0.4c-0.6,11.3-3.6,22.3-8.9,32.3
			c-3.9,7.1-11.1,6.9-15.3,0.4c-5.3-8.2-3.6-21.4-2.8-30.5c1.2-12.2,4.3-24.1,9.3-35.3C994-876.5,996.6-875,995.8-873.1L995.8-873.1
			z"/>
		<path class="st1" d="M972.4-868.7c-4.4,7.7-7.5,16-9.2,24.7c-1,5-2.2,13.2,4.9,13.8c4.2,0.4,8.6-2.7,11.8-5
			c1.6-1.1,3.1,1.5,1.5,2.6c-5.4,3.9-18.9,10-21.5-0.7c-1.3-5.5,0.2-11.4,1.5-16.8c1.8-7.1,4.7-13.9,8.4-20.2c0.4-0.7,1.3-1,2.1-0.5
			C972.6-870.4,972.9-869.5,972.4-868.7L972.4-868.7z"/>
		<path class="st1" d="M544.3-930.8c14.3,13,19.2,33.6,14.3,52.1c-5.9,22-27,33.4-47,40.1c-0.7,0.2-1.4-0.1-1.7-0.7
			c-10-19.4-12.9-41.7-8.2-63c3.4-15.9,14.5-43.1,35.2-38.9c0.6,0.2,1.1,0.8,1.1,1.5c2.6,33.5-5.6,67-23.4,95.5
			c-1,1.6-3.6,0.1-2.6-1.5c17.5-28.1,25.6-61,23-94l1.1,1.4c-10.4-2.1-18.3,6.5-23.2,14.5c-4.9,8.1-7.6,17.8-9.3,27.1
			c-3.2,19.1-0.1,38.7,8.9,55.9l-1.7-0.7c19-6.3,37.9-16.6,44.6-36.7c5.8-17.5,0.5-38.1-13.2-50.5
			C540.8-929.9,542.9-932,544.3-930.8L544.3-930.8z"/>
		<path class="st1" d="M533.9-904.1c4.2,5.7,8.9,10.9,14.3,15.5c1.3,1.2-0.4,3.1-1.8,2.4c-4.5-2.4-8.7-5.5-12.3-9.2
			c-1.2-1.2,0.4-3.3,1.8-2.4c5.9,4.1,11.9,8.2,17.8,12.2c1.6,1.1,0.1,3.7-1.5,2.6l-17.8-12.2l1.8-2.3c3.5,3.5,7.4,6.4,11.8,8.7
			l-1.8,2.3c-5.5-4.8-10.5-10.2-14.8-16.1C530.1-904.2,532.7-905.6,533.9-904.1L533.9-904.1z"/>
		<path class="st1" d="M526.3-871.5l6.7,16.9c0.6,1.6-1.9,2.6-2.7,1.2l-7.9-14.2c-0.8-1.5,1.2-3.1,2.4-1.8c4.4,4.8,8.1,10.2,11,16.1
			c0.8,1.7-1.8,3.2-2.6,1.5c-2.7-5.7-6.2-10.9-10.5-15.5l2.4-1.8l7.8,14.3l-2.7,1.2l-6.7-16.9C522.7-872.5,525.6-873.3,526.3-871.5
			L526.3-871.5z"/>
		<path class="st1" d="M526.3-883.5l-28.5,5.2c-0.8,0.2-1.6-0.3-1.8-1.1c-0.2-0.8,0.3-1.6,1-1.8c8.3-3.1,17.1-4.8,25.9-5
			c1.7,0,2.1,2.7,0.4,2.9l-20.9,3.5c-1.9,0.3-2.7-2.6-0.8-2.9l20.9-3.5l0.4,3c-8.6,0.2-17.1,1.9-25.1,4.9c-0.3-1-0.5-1.9-0.8-2.9
			l28.5-5.2C527.4-886.8,528.2-883.9,526.3-883.5L526.3-883.5z"/>
		<path class="st1" d="M532.3-918.2l-34.4,5.4c-1.9,0.3-2.7-2.4-0.8-2.9c9-2.3,18.2-3.8,27.4-4.5c1.9-0.2,1.9,2.8,0,3
			c-9,0.7-17.9,2.2-26.6,4.4c-0.3-1-0.5-1.9-0.8-2.9l34.4-5.4C533.4-921.4,534.2-918.5,532.3-918.2z"/>
		<path class="st1" d="M538-941.9c1.6,3.8,4,7.2,7.1,9.9c0.6,0.6,0.6,1.5,0,2.1c-2.4,2.7-7.5,1.4-8-2.3c-0.3-1.9,2.6-2.7,2.9-0.8
			c0.1,1,0.9,1.6,1.9,1.6c0.4,0,0.8-0.2,1.1-0.6v2.1c-3.5-3-6.2-6.9-7.9-11.2C534.4-942.8,537.3-943.6,538-941.9L538-941.9z"/>
		<path class="st1" d="M537.8-941.8c0.7,2.2-0.1,4.6-1.8,6l0.2-1.8c3.5,4.8,7.4,9.2,11.9,13.1c1.5,1.3-0.7,3.4-2.1,2.1
			c-4.6-4.1-8.8-8.7-12.4-13.7c-0.3-0.6-0.3-1.3,0.2-1.8c1-0.6,1.5-1.9,1.1-3C534.5-942.8,537.4-943.6,537.8-941.8L537.8-941.8z"/>
		<path class="st1" d="M2.3-464c17.3,7.7,35.2,14.1,53.5,19.3c0.8,0.2,1.2,1.1,1,1.9c-0.2,0.8-1,1.2-1.8,1
			c-18.5-5.3-36.6-11.8-54.2-19.6C-1-462.2,0.5-464.8,2.3-464z"/>
		<path class="st1" d="M50.9-439.8c0.8-3,1.5-6.1,2.3-9.1c0.2-0.8,1.1-1.3,1.9-1c0.2,0.1,0.4,0.2,0.6,0.4c2.5,2.5,5.3,4.6,8.5,6.2
			c0.7,0.4,0.9,1.4,0.5,2.1c-0.2,0.3-0.5,0.5-0.8,0.6l-8,2.7c-1.8,0.6-2.6-2.3-0.8-2.9l8-2.7l-0.4,2.7c-3.3-1.8-6.3-4-9-6.7l2.5-0.7
			c-0.8,3-1.6,6.1-2.3,9.1C53.3-437.1,50.4-437.9,50.9-439.8L50.9-439.8z"/>
		<path class="st1" d="M656.3-64c3.4-22.7,18.5-41.9,39.7-50.6c13.7-5.5,28.8-8.5,43.5-10.6c13.3-1.9,26.9-1.8,39.8,1.9
			c11,3.1,20.8,9.5,28.1,18.4c7.5,9.4,10.2,21.6,11.6,33.2c1.8,14.8,2.1,30,2.2,44.9c0.1,9.2,0.8,21.2-8.2,26.6
			c-0.7,0.4-1.6,0.1-2-0.6c-0.4-0.7-0.1-1.6,0.5-2c9.6-5.7,6.8-22.5,6.6-31.7c-0.2-12.4-0.7-24.8-2.1-37.1
			c-1.3-12.1-4.6-24.1-12.6-33.5c-7.1-8.3-17.3-13.4-27.8-16.1c-12.7-3.4-26.3-2.5-39.1-0.6c-12.3,1.8-24.5,4.7-36.3,8.7
			c-21.8,7.8-37.6,26.9-41,49.8C658.9-61.3,656-62.1,656.3-64L656.3-64z"/>
	</g>
</pattern>
<title>bg</title>
<pattern  id="SVGID_1_" xlink:href="#a" patternTransform="matrix(1 0 0 -1 0 -18299.0156)">
</pattern>
<rect y="1.4" class="st2" width="2000" height="1998.6"/>
</svg>
