<svg xmlns="http://www.w3.org/2000/svg" xmlns:xlink="http://www.w3.org/1999/xlink" viewBox="0 0 2500 1200"><defs><style>.a{opacity:0.24;}.b,.c,.e,.f,.g,.h,.i{opacity:0.4;}.b{fill:url(#a);}.c{fill:url(#b);}.d{fill:#fff;}.e{fill:url(#c);}.f{fill:url(#d);}.g{fill:url(#f);}.h{fill:url(#g);}.i{fill:url(#i);}</style><linearGradient id="a" x1="1767.97" y1="5097.54" x2="5174.67" y2="5097.54" gradientTransform="matrix(0.57, 0.82, -1.61, 1.12, 6967.4, -7982.96)" gradientUnits="userSpaceOnUse"><stop offset="0" stop-color="#386539"/><stop offset="1" stop-color="#00879c"/></linearGradient><linearGradient id="b" x1="4063.22" y1="4467.71" x2="5598.95" y2="4467.71" gradientTransform="matrix(1, -0.02, -0.02, -1.33, -4177.91, 6108.3)" gradientUnits="userSpaceOnUse"><stop offset="0.07" stop-color="#00879c"/><stop offset="0.25" stop-color="#048895"/><stop offset="0.51" stop-color="#0d8c80"/><stop offset="0.82" stop-color="#1d915f"/><stop offset="1" stop-color="#289548"/></linearGradient><linearGradient id="c" x1="7479.86" y1="4051.9" x2="2442.71" y2="1903.53" gradientTransform="matrix(-0.93, -0.36, 0.31, -0.81, 6009.08, 4985.38)" gradientUnits="userSpaceOnUse"><stop offset="0" stop-color="#fff024"/><stop offset="1" stop-color="#00879c"/></linearGradient><linearGradient id="d" x1="6355.84" y1="3504.62" x2="3407.87" y2="2247.29" xlink:href="#c"/><linearGradient id="f" x1="6692.25" y1="2863.47" x2="3653.04" y2="1567.23" xlink:href="#c"/><linearGradient id="g" x1="6511.65" y1="3277.39" x2="3483.54" y2="1985.88" xlink:href="#c"/><linearGradient id="i" x1="6869.71" y1="3430.1" x2="2697.74" y2="1650.73" xlink:href="#c"/></defs><title>login-bg</title><g class="a"><path class="b" d="M2517.58,1303.72c44.2-106-15.84-177.36-110.91-199.34s-219.94-4.78-339.55,7.72c-242,25.28-474.54,30.91-674.83-4.23-466-81.76-726.84-376.53-933.28-691.44C317.55,200.66,191.3-31.71-59.61-159.94-327.35-296.77-728.25-312-1175-186.92L765.92,2612.79l141.45-98.5L2509.43,1403.66Z"/><path class="c" d="M77.19,189.27A922.24,922.24,0,0,1,289.3,216.2c66.5,16.38,132.23,40.21,199.64,46.82,145.52,14.26,287.33-52.31,421.31-125S1178.86-20,1323.93-36.95L-211.24-14.43a414.58,414.58,0,0,1,4.54-90.78q1,119.83,2,239.67c.24,29.59-2.48,88.23,18.25,109.27,22.62,23,48-5.49,70-16.8C-55.49,195.55,11.85,188.66,77.19,189.27Z"/><path class="d" d="M2016,1090.85c94.73.2,189.72,2.3,284.3,4.45l49.34,1.12c40.19-32.33,76.08-68.64,106.39-109.28,35.69-47.88,62.66-100.08,85.7-154.23V685.39C2420.89,865.33,2234.57,1006.09,2016,1090.85Z"/><path class="e" d="M2016,1090.85c94.73.2,189.72,2.3,284.3,4.45l49.34,1.12c40.19-32.33,76.08-68.64,106.39-109.28,35.69-47.88,62.66-100.08,85.7-154.23V395C2541.71,647,2234.57,1006.09,2016,1090.85Z"/><path class="d" d="M2349.62,1096.42l192.09,4.36V832.91c-23,54.15-50,106.35-85.7,154.23C2425.7,1027.78,2389.81,1064.09,2349.62,1096.42Z"/><path class="f" d="M2349.62,1096.42l192.09,4.36V832.91c-23,54.15-50,106.35-85.7,154.23C2425.7,1027.78,2389.81,1064.09,2349.62,1096.42Z"/><path class="f" d="M2349.62,1096.42l192.09,4.36V832.91c-23,54.15-50,106.35-85.7,154.23C2425.7,1027.78,2389.81,1064.09,2349.62,1096.42Z"/><path class="d" d="M1552.25,1180.66c162.22-2.51,320-34.06,463.73-89.81-238.74-.5-475.8,11.1-700.17,64.66q-16.87,4-33.59,8.42C1372.35,1175.16,1462.41,1182.06,1552.25,1180.66Z"/><path class="d" d="M2300.28,1095.3c-94.58-2.15-189.57-4.25-284.3-4.45-143.78,55.75-301.51,87.3-463.73,89.81-89.84,1.4-179.9-5.5-270-16.73a1663.63,1663.63,0,0,0-217.83,73.12H2087.22c97.44-34,187.46-80.34,262.4-140.63Z"/><path class="g" d="M2300.28,1095.3c-94.58-2.15-189.57-4.25-284.3-4.45-143.78,55.75-301.51,87.3-463.73,89.81-89.84,1.4-179.9-5.5-270-16.73a1663.63,1663.63,0,0,0-217.83,73.12H2087.22c97.44-34,187.46-80.34,262.4-140.63Z"/><path class="d" d="M2087.22,1237.05h454.49V1100.78l-192.09-4.36C2274.68,1156.71,2184.66,1203,2087.22,1237.05Z"/><path class="h" d="M2087.22,1237.05h454.49V1100.78l-192.09-4.36C2274.68,1156.71,2184.66,1203,2087.22,1237.05Z"/><path class="h" d="M2087.22,1237.05h454.49V1100.78l-192.09-4.36C2274.68,1156.71,2184.66,1203,2087.22,1237.05Z"/><path class="i" d="M2087.22,1237.05h454.49V1100.78l-192.09-4.36C2274.68,1156.71,2184.66,1203,2087.22,1237.05Z"/></g></svg>