<svg xmlns="http://www.w3.org/2000/svg" xmlns:xlink="http://www.w3.org/1999/xlink" viewBox="0 0 2500 1200"><defs><style>.a{fill:#fff;}.b,.c,.e,.f,.g,.h,.i,.j,.k,.l,.m{opacity:0.4;}.b{fill:url(#a);}.c{fill:url(#b);}.d{opacity:0.2;fill:url(#c);}.e{fill:url(#d);}.f{fill:url(#e);}.g{fill:url(#g);}.h{fill:url(#h);}.i{fill:url(#i);}.j{fill:url(#j);}.k{fill:url(#l);}.l{fill:url(#m);}.m{fill:url(#n);}</style><linearGradient id="a" x1="6952.41" y1="2233.86" x2="3931.27" y2="945.33" gradientTransform="matrix(-0.93, -0.36, 0.31, -0.81, 6009.08, 4985.38)" gradientUnits="userSpaceOnUse"><stop offset="0" stop-color="#fff024"/><stop offset="1" stop-color="#00879c"/></linearGradient><linearGradient id="b" x1="3307.98" y1="5101.16" x2="4648.42" y2="5101.16" gradientTransform="translate(4585.49 5280.73) rotate(180)" xlink:href="#a"/><linearGradient id="c" x1="3816.63" y1="4446.84" x2="5352.36" y2="4446.84" gradientTransform="matrix(1, -0.05, -0.06, -1.33, -3986.47, 6246.28)" gradientUnits="userSpaceOnUse"><stop offset="0.07" stop-color="#00879c"/><stop offset="0.15" stop-color="#078a99"/><stop offset="0.27" stop-color="#1c938f"/><stop offset="0.42" stop-color="#3ea07f"/><stop offset="0.59" stop-color="#6cb469"/><stop offset="0.77" stop-color="#a8cc4d"/><stop offset="0.96" stop-color="#f0ea2b"/><stop offset="1" stop-color="#fff024"/></linearGradient><linearGradient id="d" x1="7479.86" y1="4051.9" x2="2442.71" y2="1903.53" xlink:href="#a"/><linearGradient id="e" x1="6355.84" y1="3504.62" x2="3407.87" y2="2247.29" xlink:href="#a"/><linearGradient id="g" x1="7053.99" y1="3006.83" x2="2868.28" y2="1221.61" xlink:href="#a"/><linearGradient id="h" x1="6692.25" y1="2863.47" x2="3653.04" y2="1567.23" xlink:href="#a"/><linearGradient id="i" x1="7051.61" y1="3016.74" x2="2864.37" y2="1230.86" xlink:href="#a"/><linearGradient id="j" x1="6511.65" y1="3277.39" x2="3483.54" y2="1985.88" xlink:href="#a"/><linearGradient id="l" x1="6869.71" y1="3430.1" x2="2697.74" y2="1650.73" xlink:href="#a"/><linearGradient id="m" x1="7127.43" y1="1833.32" x2="4099.76" y2="542" xlink:href="#a"/><linearGradient id="n" x1="7185.85" y1="1858.24" x2="4158.19" y2="566.92" xlink:href="#a"/></defs><title>login-bg</title><path class="a" d="M834.39,1090.33c-212.75-35-433.81-57.24-635.54-16.12,127.7,24.52,254.22,64.17,376.56,109.66,45.77,17,91.2,34.9,136.47,53.18h352.51a1663.63,1663.63,0,0,1,217.83-73.12C1132.93,1145.32,983.44,1114.81,834.39,1090.33Z"/><path class="b" d="M834.39,1090.33c-212.75-35-433.81-57.24-635.54-16.12,127.7,24.52,254.22,64.17,376.56,109.66,45.77,17,91.2,34.9,136.47,53.18h352.51a1663.63,1663.63,0,0,1,217.83-73.12C1132.93,1145.32,983.44,1114.81,834.39,1090.33Z"/><path class="c" d="M-32.29,391.41c24.36,19.38,60.9,17.64,89.32,4.49s50.85-35.69,73.62-56.83c46.07-42.75,96.38-81.71,152.65-110.7C414.2,160.93,568,151.62,716.1,153.58,817.59,154.92,921,160.66,1018.74,134,1123,105.48,1217.81,41.17,1277.51-46.73H-62.92l.13,34.56V378.65Z"/><path class="d" d="M-164.28,236.06A921.57,921.57,0,0,1,48.57,256.32c67,14.28,133.43,36,201,40.53,145.9,9.69,285.54-61.31,417.18-138.18s263.51-166.36,408-187.86L-459,41.51a414.27,414.27,0,0,1,1.69-90.87q4.74,119.75,9.47,239.49c1.17,29.57.3,88.26,21.67,108.65,23.34,22.25,47.78-7,69.4-19C-296.7,246.5-229.61,237.5-164.28,236.06Z"/><path class="a" d="M2016,1090.85c94.73.2,189.72,2.3,284.3,4.45l49.34,1.12c40.19-32.33,76.08-68.64,106.39-109.28,35.69-47.88,62.66-100.08,85.7-154.23V685.39C2420.89,865.33,2234.57,1006.09,2016,1090.85Z"/><path class="e" d="M2016,1090.85c94.73.2,189.72,2.3,284.3,4.45l49.34,1.12c40.19-32.33,76.08-68.64,106.39-109.28,35.69-47.88,62.66-100.08,85.7-154.23V395C2541.71,647,2234.57,1006.09,2016,1090.85Z"/><path class="a" d="M2349.62,1096.42l192.09,4.36V832.91c-23,54.15-50,106.35-85.7,154.23C2425.7,1027.78,2389.81,1064.09,2349.62,1096.42Z"/><path class="f" d="M2349.62,1096.42l192.09,4.36V832.91c-23,54.15-50,106.35-85.7,154.23C2425.7,1027.78,2389.81,1064.09,2349.62,1096.42Z"/><path class="f" d="M2349.62,1096.42l192.09,4.36V832.91c-23,54.15-50,106.35-85.7,154.23C2425.7,1027.78,2389.81,1064.09,2349.62,1096.42Z"/><path class="a" d="M1552.25,1180.66c162.22-2.51,320-34.06,463.73-89.81-238.74-.5-475.8,11.1-700.17,64.66q-16.87,4-33.59,8.42C1372.35,1175.16,1462.41,1182.06,1552.25,1180.66Z"/><path class="g" d="M1552.25,1180.66c162.22-2.51,320-34.06,463.73-89.81-238.74-.5-475.8,11.1-700.17,64.66q-16.87,4-33.59,8.42C1372.35,1175.16,1462.41,1182.06,1552.25,1180.66Z"/><path class="a" d="M2300.28,1095.3c-94.58-2.15-189.57-4.25-284.3-4.45-143.78,55.75-301.51,87.3-463.73,89.81-89.84,1.4-179.9-5.5-270-16.73a1663.63,1663.63,0,0,0-217.83,73.12H2087.22c97.44-34,187.46-80.34,262.4-140.63Z"/><path class="h" d="M2300.28,1095.3c-94.58-2.15-189.57-4.25-284.3-4.45-143.78,55.75-301.51,87.3-463.73,89.81-89.84,1.4-179.9-5.5-270-16.73a1663.63,1663.63,0,0,0-217.83,73.12H2087.22c97.44-34,187.46-80.34,262.4-140.63Z"/><path class="i" d="M2300.28,1095.3c-94.58-2.15-189.57-4.25-284.3-4.45-143.78,55.75-301.51,87.3-463.73,89.81-89.84,1.4-179.9-5.5-270-16.73a1663.63,1663.63,0,0,0-217.83,73.12H2087.22c97.44-34,187.46-80.34,262.4-140.63Z"/><path class="a" d="M2087.22,1237.05h454.49V1100.78l-192.09-4.36C2274.68,1156.71,2184.66,1203,2087.22,1237.05Z"/><path class="j" d="M2087.22,1237.05h454.49V1100.78l-192.09-4.36C2274.68,1156.71,2184.66,1203,2087.22,1237.05Z"/><path class="j" d="M2087.22,1237.05h454.49V1100.78l-192.09-4.36C2274.68,1156.71,2184.66,1203,2087.22,1237.05Z"/><path class="k" d="M2087.22,1237.05h454.49V1100.78l-192.09-4.36C2274.68,1156.71,2184.66,1203,2087.22,1237.05Z"/><path class="a" d="M198.85,1074.21c-24.91,5.08-49.54,11.06-73.8,18.17-97.9,28.68-189.73,78.42-260.48,144.67H711.88c-45.27-18.28-90.7-36.17-136.47-53.18C453.07,1138.38,326.55,1098.73,198.85,1074.21Z"/><path class="l" d="M198.85,1074.21c-24.91,5.08-49.54,11.06-73.8,18.17-97.9,28.68-189.73,78.42-260.48,144.67H711.88c-45.27-18.28-90.7-36.17-136.47-53.18C453.07,1138.38,326.55,1098.73,198.85,1074.21Z"/><path class="m" d="M198.85,1074.21c-24.91,5.08-49.54,11.06-73.8,18.17-97.9,28.68-189.73,78.42-260.48,144.67H711.88c-45.27-18.28-90.7-36.17-136.47-53.18C453.07,1138.38,326.55,1098.73,198.85,1074.21Z"/></svg>